<?xml version="1.0" encoding="UTF-8" standalone="no"?>
<!-- Created with Inkscape (http://www.inkscape.org/) -->
<svg id="svg1" height="199.35" viewBox="0,0,561.76544,199.35367" width="561.77" xmlns="http://www.w3.org/2000/svg" xmlns:xlink="http://www.w3.org/1999/xlink" xmlns:svg="http://www.w3.org/2000/svg">
 <clipPath id="clipPath2">
  <path id="path2" d="m0 0h422v150h-422z"/>
 </clipPath>
 <clipPath id="clipPath4">
  <path id="path4" d="m0 0h422v150h-422z"/>
 </clipPath>
 <clipPath id="clipPath6">
  <path id="path6" d="m0 0h422v150h-422z"/>
 </clipPath>
 <clipPath id="clipPath8">
  <path id="path8" d="m0 0h422v150h-422z"/>
 </clipPath>
 <g id="g1">
  <path id="path1" d="m0 0h421.324v149.516h-421.324z" fill="#fff" transform="scale(1.3333333)"/>
  <g id="g3" opacity=".5">
   <path id="path3" clip-path="url(#clipPath2)" d="m103.234 0h27.965v150.766h-27.965z" fill="#99c1f1" transform="scale(1.3333333)"/>
  </g>
  <g id="g5" opacity=".5">
   <path id="path5" clip-path="url(#clipPath4)" d="m301.234 0h27.965v150.766h-27.965z" fill="#99c1f1" transform="scale(1.3333333)"/>
  </g>
  <g id="g7" opacity=".5">
   <path id="path7" clip-path="url(#clipPath6)" d="m329.199 0h92.125v150.766h-92.125z" fill="#8ff0a4" transform="scale(1.3333333)"/>
  </g>
  <g id="g9" opacity=".5">
   <path id="path9" clip-path="url(#clipPath8)" d="m0 0h103.234v150.766h-103.234z" fill="#f9f06b" transform="scale(1.3333333)"/>
  </g>
  <path id="path10" d="m39.215 93.152v-23.25" fill="none" stroke="#000" stroke-linecap="round" stroke-miterlimit="10" stroke-width="2.25" transform="scale(1.3333333)"/>
  <path id="path11" d="m39.215 44.402v-23.25" fill="none" stroke="#000" stroke-linecap="round" stroke-miterlimit="10" stroke-width="2.25" transform="scale(1.3333333)"/>
  <path id="path12" d="m51.711 57.152c0 6.899-5.59 12.493-12.488 12.496-6.903 0-12.496-5.589-12.5-12.488-.004-6.898 5.582-12.496 12.484-12.504 6.898-.004 12.496 5.582 12.504 12.481" fill="#fff" stroke="#000" stroke-linecap="round" stroke-miterlimit="10" stroke-width="2.25" transform="scale(1.3333333)"/>
  <path id="path13" d="m31.715 57.152 2.25-4.5.75-.75h1.5l.75.75 4.5 9 .75.75h1.5l.75-.75 2.25-4.5" fill="none" stroke="#000" stroke-linecap="round" stroke-miterlimit="10" stroke-width="2.25" transform="scale(1.3333333)"/>
  <path id="path14" d="m5.719 56.43c.66 0 1.183.164 1.574.492.391.332.586.797.586 1.394 0 .668-.211 1.192-.641 1.579-.418.375-1.008.566-1.761.566-.332 0-.641-.031-.938-.09-.285-.062-.531-.148-.727-.262v-.746c.215.129.477.235.782.313.312.074.609.109.89.109.477 0 .856-.109 1.145-.332.293-.23.441-.582.441-1.055 0-.418-.129-.742-.386-.96-.258-.231-.668-.344-1.227-.344-.168 0-.359.015-.574.047-.215.027-.391.058-.524.089l-.394-.253.242-3.032h3.223v.719h-2.547l-.153 1.863c.102-.019.239-.039.415-.062.171-.024.363-.035.574-.035zm7.379.718c0 .688-.071 1.286-.215 1.782-.145.492-.371.871-.684 1.132-.312.266-.726.399-1.242.399-.727 0-1.262-.293-1.609-.875-.344-.586-.516-1.398-.516-2.438 0-.695.07-1.289.207-1.781.145-.492.371-.867.684-1.125.312-.265.722-.398 1.234-.398.719 0 1.258.293 1.609.875.356.574.532 1.386.532 2.429zm-3.473 0c0 .883.098 1.543.297 1.981.203.437.551.656 1.035.656.481 0 .82-.215 1.027-.648.207-.438.313-1.102.313-1.989 0-.875-.106-1.535-.313-1.972-.207-.438-.546-.656-1.027-.656-.484 0-.832.218-1.035.656-.199.437-.297 1.097-.297 1.972zm9.703 3.223h-.812v-3h-3.293v3h-.809v-6.426h.809v2.715h3.293v-2.715h.812zm4.762 0h-3.531v-.523l2.593-3.692h-2.437v-.609h3.308v.594l-2.554 3.617h2.621z" transform="scale(1.3333333)"/>
  <path id="path15" d="m147.215 69.152v24" fill="none" stroke="#000" stroke-linecap="round" stroke-miterlimit="10" stroke-width="2.25" transform="scale(1.3333333)"/>
  <path id="path16" d="m87.215 45.152h21" fill="none" stroke="#000" stroke-linecap="round" stroke-miterlimit="10" stroke-width="2.25" transform="scale(1.3333333)"/>
  <path id="path17" d="m147.215 45.152h-21" fill="none" stroke="#000" stroke-linecap="round" stroke-miterlimit="10" stroke-width="2.25" transform="scale(1.3333333)"/>
  <path id="path18" d="m87.215 69.152h21" fill="none" stroke="#000" stroke-linecap="round" stroke-miterlimit="10" stroke-width="2.25" transform="scale(1.3333333)"/>
  <path id="path19" d="m147.215 69.152h-21" fill="none" stroke="#000" stroke-linecap="round" stroke-miterlimit="10" stroke-width="2.25" transform="scale(1.3333333)"/>
  <path id="path20" d="m108.215 45.152c5.336 0 5.336 8 0 8" fill="none" stroke="#000" stroke-linecap="round" stroke-miterlimit="10" stroke-width="2.25" transform="scale(1.3333333)"/>
  <path id="path21" d="m108.215 53.152c5.332.004 5.332 7.996 0 8" fill="none" stroke="#000" stroke-linecap="round" stroke-miterlimit="10" stroke-width="2.25" transform="scale(1.3333333)"/>
  <path id="path22" d="m108.215 61.152c5.336 0 5.336 8 0 8" fill="none" stroke="#000" stroke-linecap="round" stroke-miterlimit="10" stroke-width="2.25" transform="scale(1.3333333)"/>
  <path id="path23" d="m126.215 45.152c-5.332 0-5.332 8 0 8" fill="none" stroke="#000" stroke-linecap="round" stroke-miterlimit="10" stroke-width="2.25" transform="scale(1.3333333)"/>
  <path id="path24" d="m126.215 53.152c-5.328.004-5.328 7.996 0 8" fill="none" stroke="#000" stroke-linecap="round" stroke-miterlimit="10" stroke-width="2.25" transform="scale(1.3333333)"/>
  <path id="path25" d="m126.215 61.152c-5.332 0-5.332 8 0 8" fill="none" stroke="#000" stroke-linecap="round" stroke-miterlimit="10" stroke-width="2.25" transform="scale(1.3333333)"/>
  <path id="path26" d="m115.715 45.152v24" fill="none" stroke="#000" stroke-linecap="round" stroke-miterlimit="10" stroke-width="2.25" transform="scale(1.3333333)"/>
  <path id="path27" d="m118.715 45.152v24" fill="none" stroke="#000" stroke-linecap="round" stroke-miterlimit="10" stroke-width="2.25" transform="scale(1.3333333)"/>
  <path id="path28" d="m87.215 45.152v-24" fill="none" stroke="#000" stroke-linecap="round" stroke-miterlimit="10" stroke-width="2.25" transform="scale(1.3333333)"/>
  <path id="path29" d="m87.215 69.152v24" fill="none" stroke="#000" stroke-linecap="round" stroke-miterlimit="10" stroke-width="2.25" transform="scale(1.3333333)"/>
  <path id="path30" d="m87.215 21.152h-12" fill="none" stroke="#000" stroke-linecap="round" stroke-miterlimit="10" stroke-width="2.25" transform="scale(1.3333333)"/>
  <path id="path31" d="m51.215 21.152h-12" fill="none" stroke="#000" stroke-linecap="round" stroke-miterlimit="10" stroke-width="2.25" transform="scale(1.3333333)"/>
  <path id="path32" d="m-51.215-16.652h-24v-9h24z" fill="#fff" stroke="#000" stroke-linecap="round" stroke-linejoin="round" stroke-miterlimit="10" stroke-width="2.25" transform="scale(-1.3333333)"/>
  <path id="path33" d="m39.215 93.152h48" fill="none" stroke="#000" stroke-linecap="round" stroke-miterlimit="10" stroke-width="2.25" transform="scale(1.3333333)"/>
  <path id="path34" d="m147.215 45.152v-24" fill="none" stroke="#000" stroke-linecap="round" stroke-miterlimit="10" stroke-width="2.25" transform="scale(1.3333333)"/>
  <path id="path35" d="m147.215 21.152h60" fill="none" stroke="#000" stroke-linecap="round" stroke-miterlimit="10" stroke-width="2.25" transform="scale(1.3333333)"/>
  <path id="path36" d="m231.215 21.152h60" fill="none" stroke="#000" stroke-linecap="round" stroke-miterlimit="10" stroke-width="2.25" transform="scale(1.3333333)"/>
  <path id="path37" d="m207.215 16.652h24v9h-24z" fill="#fff" stroke="#000" stroke-linecap="round" stroke-linejoin="round" stroke-miterlimit="10" stroke-width="2.25" transform="scale(1.3333333)"/>
  <path id="path38" d="m147.215 93.152h60" fill="none" stroke="#000" stroke-linecap="round" stroke-miterlimit="10" stroke-width="2.25" transform="scale(1.3333333)"/>
  <path id="path39" d="m231.215 93.152h60" fill="none" stroke="#000" stroke-linecap="round" stroke-miterlimit="10" stroke-width="2.25" transform="scale(1.3333333)"/>
  <path id="path40" d="m207.215 88.652h24v9h-24z" fill="#fff" stroke="#000" stroke-linecap="round" stroke-linejoin="round" stroke-miterlimit="10" stroke-width="2.25" transform="scale(1.3333333)"/>
  <path id="path41" d="m291.215 21.152v24" fill="none" stroke="#000" stroke-linecap="round" stroke-miterlimit="10" stroke-width="2.25" transform="scale(1.3333333)"/>
  <path id="path42" d="m291.215 93.152v-24" fill="none" stroke="#000" stroke-linecap="round" stroke-miterlimit="10" stroke-width="2.25" transform="scale(1.3333333)"/>
  <path id="path43" d="m291.215 45.152h15" fill="none" stroke="#000" stroke-linecap="round" stroke-miterlimit="10" stroke-width="2.25" transform="scale(1.3333333)"/>
  <path id="path44" d="m339.215 45.152h-15" fill="none" stroke="#000" stroke-linecap="round" stroke-miterlimit="10" stroke-width="2.25" transform="scale(1.3333333)"/>
  <path id="path45" d="m291.215 69.152h15" fill="none" stroke="#000" stroke-linecap="round" stroke-miterlimit="10" stroke-width="2.25" transform="scale(1.3333333)"/>
  <path id="path46" d="m339.215 69.152h-15" fill="none" stroke="#000" stroke-linecap="round" stroke-miterlimit="10" stroke-width="2.25" transform="scale(1.3333333)"/>
  <path id="path47" d="m306.215 45.152c5.336 0 5.336 8 0 8" fill="none" stroke="#000" stroke-linecap="round" stroke-miterlimit="10" stroke-width="2.25" transform="scale(1.3333333)"/>
  <path id="path48" d="m306.215 53.152c5.332.004 5.332 7.996 0 8" fill="none" stroke="#000" stroke-linecap="round" stroke-miterlimit="10" stroke-width="2.25" transform="scale(1.3333333)"/>
  <path id="path49" d="m306.215 61.152c5.336 0 5.336 8 0 8" fill="none" stroke="#000" stroke-linecap="round" stroke-miterlimit="10" stroke-width="2.25" transform="scale(1.3333333)"/>
  <path id="path50" d="m324.215 45.152c-5.332 0-5.332 8 0 8" fill="none" stroke="#000" stroke-linecap="round" stroke-miterlimit="10" stroke-width="2.25" transform="scale(1.3333333)"/>
  <path id="path51" d="m324.215 53.152c-5.328.004-5.328 7.996 0 8" fill="none" stroke="#000" stroke-linecap="round" stroke-miterlimit="10" stroke-width="2.25" transform="scale(1.3333333)"/>
  <path id="path52" d="m324.215 61.152c-5.332 0-5.332 8 0 8" fill="none" stroke="#000" stroke-linecap="round" stroke-miterlimit="10" stroke-width="2.25" transform="scale(1.3333333)"/>
  <path id="path53" d="m313.715 45.152v24" fill="none" stroke="#000" stroke-linecap="round" stroke-miterlimit="10" stroke-width="2.25" transform="scale(1.3333333)"/>
  <path id="path54" d="m316.715 45.152v24" fill="none" stroke="#000" stroke-linecap="round" stroke-miterlimit="10" stroke-width="2.25" transform="scale(1.3333333)"/>
  <path id="path55" d="m339.215 45.152v-24" fill="none" stroke="#000" stroke-linecap="round" stroke-miterlimit="10" stroke-width="2.25" transform="scale(1.3333333)"/>
  <path id="path56" d="m339.215 21.152h48" fill="none" stroke="#000" stroke-linecap="round" stroke-miterlimit="10" stroke-width="2.25" transform="scale(1.3333333)"/>
  <path id="path57" d="m339.215 69.152v24" fill="none" stroke="#000" stroke-linecap="round" stroke-miterlimit="10" stroke-width="2.25" transform="scale(1.3333333)"/>
  <path id="path58" d="m339.215 93.152h48" fill="none" stroke="#000" stroke-linecap="round" stroke-miterlimit="10" stroke-width="2.25" transform="scale(1.3333333)"/>
  <path id="path59" d="m387.215 21.152v24" fill="none" stroke="#000" stroke-linecap="round" stroke-miterlimit="10" stroke-width="2.25" transform="scale(1.3333333)"/>
  <path id="path60" d="m387.215 69.152v24" fill="none" stroke="#000" stroke-linecap="round" stroke-miterlimit="10" stroke-width="2.25" transform="scale(1.3333333)"/>
  <path id="path61" d="m45.152-382.715h24v-9h-24z" fill="#fff" stroke="#000" stroke-linecap="round" stroke-linejoin="round" stroke-miterlimit="10" stroke-width="2.25" transform="matrix(0 1.3333333 -1.3333333 0 0 0)"/>
  <path id="path62" d="m291.215 93.152v12" fill="none" stroke="#000" stroke-linecap="round" stroke-miterlimit="10" stroke-width="2.25" transform="scale(1.3333333)"/>
  <path id="path63" d="m298.715 105.152h-15" fill="none" stroke="#000" stroke-linecap="round" stroke-miterlimit="10" stroke-width="2.25" transform="scale(1.3333333)"/>
  <path id="path64" d="m295.715 108.902h-9" fill="none" stroke="#000" stroke-linecap="round" stroke-miterlimit="10" stroke-width="2.25" transform="scale(1.3333333)"/>
  <path id="path65" d="m292.715 112.652h-3" fill="none" stroke="#000" stroke-linecap="round" stroke-miterlimit="10" stroke-width="2.25" transform="scale(1.3333333)"/>
  <path id="path66" d="m387.215 93.152v12" fill="none" stroke="#000" stroke-linecap="round" stroke-miterlimit="10" stroke-width="2.25" transform="scale(1.3333333)"/>
  <path id="path67" d="m394.715 105.152h-15" fill="none" stroke="#000" stroke-linecap="round" stroke-miterlimit="10" stroke-width="2.25" transform="scale(1.3333333)"/>
  <path id="path68" d="m391.715 108.902h-9" fill="none" stroke="#000" stroke-linecap="round" stroke-miterlimit="10" stroke-width="2.25" transform="scale(1.3333333)"/>
  <path id="path69" d="m388.715 112.652h-3" fill="none" stroke="#000" stroke-linecap="round" stroke-miterlimit="10" stroke-width="2.25" transform="scale(1.3333333)"/>
  <path id="path70" d="m39.215 93.152v12" fill="none" stroke="#000" stroke-linecap="round" stroke-miterlimit="10" stroke-width="2.25" transform="scale(1.3333333)"/>
  <path id="path71" d="m46.715 105.152h-15" fill="none" stroke="#000" stroke-linecap="round" stroke-miterlimit="10" stroke-width="2.25" transform="scale(1.3333333)"/>
  <path id="path72" d="m43.715 108.902h-9" fill="none" stroke="#000" stroke-linecap="round" stroke-miterlimit="10" stroke-width="2.25" transform="scale(1.3333333)"/>
  <path id="path73" d="m40.715 112.652h-3" fill="none" stroke="#000" stroke-linecap="round" stroke-miterlimit="10" stroke-width="2.25" transform="scale(1.3333333)"/>
  <path id="path74" d="m41.465 93.152c0 3-4.5 3-4.5 0s4.5-3 4.5 0z" transform="scale(1.3333333)"/>
  <path id="path75" d="m293.465 93.152c0 3-4.5 3-4.5 0s4.5-3 4.5 0z" transform="scale(1.3333333)"/>
  <path id="path76" d="m389.465 93.152c0 3-4.5 3-4.5 0s4.5-3 4.5 0z" transform="scale(1.3333333)"/>
  <path id="path77" d="m12.418 127.719h2.223v3.148c-.348.113-.7.199-1.055.254-.352.051-.754.078-1.207.078-.664 0-1.227-.129-1.68-.394-.457-.27-.804-.653-1.047-1.145-.234-.496-.351-1.086-.351-1.762 0-.671.133-1.253.398-1.746.262-.492.641-.875 1.133-1.144.5-.274 1.098-.414 1.801-.414.359 0 .699.035 1.015.101.325.063.625.157.903.278l-.309.703c-.226-.102-.484-.192-.773-.262-.281-.074-.574-.109-.883-.109-.766 0-1.367.23-1.797.695-.426.461-.641 1.094-.641 1.898 0 .508.082.961.243 1.36.168.39.429.695.785.918.351.215.816.324 1.394.324.282 0 .52-.016.719-.047s.379-.066.539-.109v-1.906h-1.41zm5.516-1.524c.414 0 .769.09 1.062.27.301.183.527.437.684.765.16.325.242.708.242 1.145v.477h-3.301c.012.546.149.964.414 1.25.27.281.645.425 1.125.425.305 0 .574-.027.809-.082.238-.062.484-.144.738-.254v.696c-.246.105-.488.183-.73.234-.239.051-.524.078-.856.078-.453 0-.859-.09-1.215-.277-.347-.188-.621-.461-.816-.828-.192-.371-.289-.824-.289-1.36 0-.527.086-.98.261-1.359.18-.379.43-.668.747-.871.324-.207.699-.309 1.125-.309zm-.008.649c-.379 0-.68.125-.903.371-.214.238-.343.574-.386 1.008h2.457c-.004-.411-.102-.739-.285-.993-.188-.257-.481-.386-.883-.386zm5.543-.649c.574 0 1.011.141 1.304.426.293.274.442.723.442 1.348v3.14h-.781v-3.086c0-.773-.364-1.16-1.082-1.16-.536 0-.903.149-1.106.449-.207.301-.308.731-.308 1.297v2.5h-.79v-4.824h.637l.117.66h.047c.156-.254.371-.441.649-.558.273-.129.566-.192.871-.192zm5.101 0c.414 0 .77.09 1.063.27.301.183.527.437.683.765.164.325.246.708.246 1.145v.477h-3.304c.012.546.148.964.414 1.25.269.281.644.425 1.125.425.305 0 .574-.027.808-.082.243-.062.489-.144.739-.254v.696c-.246.105-.489.183-.727.234-.242.051-.527.078-.855.078-.457 0-.864-.09-1.215-.277-.348-.188-.621-.461-.82-.828-.192-.371-.289-.824-.289-1.36 0-.527.089-.98.261-1.359.18-.379.43-.668.746-.871.325-.207.7-.309 1.125-.309zm-.008.649c-.378 0-.679.125-.898.371-.219.238-.348.574-.387 1.008h2.457c-.007-.411-.105-.739-.289-.993-.187-.257-.48-.386-.883-.386zm5.473-.649c.09 0 .188.008.289.02.106.004.199.019.278.035l-.098.73c-.078-.019-.168-.035-.262-.046-.09-.012-.176-.016-.262-.016-.246 0-.476.066-.691.207-.219.129-.391.32-.523.566-.125.239-.188.52-.188.844v2.574h-.793v-4.824h.649l.089.883h.036c.156-.262.355-.492.601-.684.246-.191.539-.289.875-.289zm3.113.012c.59 0 1.024.129 1.305.387s.422.668.422 1.23v3.285h-.574l-.153-.683h-.035c-.211.265-.433.461-.668.586-.226.125-.547.187-.953.187-.437 0-.801-.113-1.09-.34-.289-.234-.429-.597-.429-1.089 0-.481.187-.848.566-1.106.375-.266.957-.41 1.746-.434l.817-.027v-.289c0-.402-.086-.68-.262-.836-.172-.156-.418-.234-.735-.234-.253 0-.492.039-.722.117-.227.074-.442.156-.637.254l-.246-.594c.211-.117.461-.211.75-.289.285-.086.586-.125.898-.125zm.235 2.574c-.602.024-1.016.117-1.25.285-.231.168-.344.407-.344.711 0 .27.082.469.242.594.168.129.383.191.641.191.406 0 .746-.113 1.016-.332.269-.23.406-.578.406-1.046v-.43zm4.597 1.77c.122 0 .247-.008.372-.024.125-.027.226-.05.304-.074v.602c-.082.043-.203.078-.359.101-.156.032-.305.043-.449.043-.254 0-.489-.039-.703-.125-.211-.09-.379-.242-.512-.457-.133-.219-.199-.519-.199-.91v-2.809h-.684v-.378l.691-.313.317-1.027h.469v1.105h1.394v.613h-1.394v2.79c0 .296.066.515.207.656.144.14.324.207.546.207zm5.832-1.86c0 .797-.203 1.414-.609 1.852-.402.437-.949.656-1.641.656-.425 0-.804-.094-1.14-.285-.332-.199-.594-.484-.785-.855-.192-.379-.285-.836-.285-1.368 0-.8.199-1.414.601-1.847.402-.43.949-.649 1.637-.649.437 0 .824.102 1.152.297.336.196.598.477.785.848.192.367.285.816.285 1.351zm-3.644 0c0 .567.113 1.02.332 1.356.23.332.59.496 1.082.496.484 0 .844-.164 1.07-.496.227-.336.344-.789.344-1.356 0-.57-.117-1.019-.344-1.343-.226-.325-.586-.485-1.078-.485s-.851.16-1.074.485c-.219.324-.332.773-.332 1.343zm7.148-2.496c.09 0 .184.008.286.02.109.004.203.019.281.035l-.102.73c-.078-.019-.164-.035-.258-.046-.089-.012-.179-.016-.261-.016-.246 0-.477.066-.696.207-.214.129-.39.32-.519.566-.129.239-.192.52-.192.844v2.574h-.789v-4.824h.645l.09.883h.039c.156-.262.355-.492.601-.684.247-.191.539-.289.875-.289zm4.606 3.582c0 .469-.172.825-.52 1.063-.351.242-.816.359-1.406.359-.336 0-.625-.027-.871-.078-.242-.055-.453-.129-.641-.226v-.719c.192.094.422.183.692.269.277.078.558.117.84.117.402 0 .691-.062.871-.191.179-.129.269-.305.269-.519 0-.122-.031-.231-.097-.325-.067-.097-.188-.191-.36-.289-.168-.097-.41-.203-.73-.324-.313-.121-.578-.238-.801-.359s-.391-.266-.512-.434-.179-.383-.179-.648c0-.407.164-.723.496-.942.336-.222.773-.336 1.312-.336.293 0 .567.032.82.09.258.055.497.133.719.235l-.269.632c-.203-.086-.418-.156-.641-.218-.223-.059-.449-.09-.684-.09-.324 0-.574.054-.746.164-.168.101-.254.242-.254.422 0 .132.04.246.118.343.078.09.207.18.386.27.188.082.434.184.739.305.308.113.566.23.785.351.215.121.379.266.492.442.117.168.172.379.172.636zm3.465-3.582c.593 0 1.07.207 1.433.621.364.414.547 1.039.547 1.875 0 .821-.183 1.446-.547 1.871-.363.426-.84.637-1.441.637-.371 0-.68-.066-.926-.207-.242-.144-.43-.308-.57-.492h-.051c.012.102.023.23.035.387.012.156.016.289.016.402v1.981h-.789v-6.985h.648l.106.66h.035c.144-.211.336-.39.57-.531.235-.144.543-.219.934-.219zm-.145.668c-.492 0-.84.137-1.043.414-.199.274-.301.696-.316 1.258v.156c0 .594.097 1.051.289 1.375.199.317.562.477 1.09.477.293 0 .535-.082.718-.242.192-.164.336-.383.426-.656.094-.282.141-.606.141-.965 0-.551-.106-.992-.32-1.321-.211-.332-.539-.496-.985-.496zm5.211-.656c.59 0 1.024.129 1.305.387.285.258.426.668.426 1.23v3.285h-.579l-.152-.683h-.035c-.211.265-.434.461-.668.586-.227.125-.543.187-.953.187-.438 0-.801-.113-1.09-.34-.285-.234-.43-.597-.43-1.089 0-.481.188-.848.567-1.106.379-.266.961-.41 1.746-.434l.82-.027v-.289c0-.402-.09-.68-.262-.836-.175-.156-.421-.234-.738-.234-.254 0-.492.039-.719.117-.23.074-.441.156-.64.254l-.242-.594c.211-.117.457-.211.746-.289.289-.086.59-.125.898-.125zm.235 2.574c-.598.024-1.016.117-1.25.285-.227.168-.34.407-.34.711 0 .27.078.469.242.594.168.129.379.191.637.191.41 0 .75-.113 1.019-.332.27-.23.402-.578.402-1.046v-.43zm5.312-2.586c.574 0 1.008.141 1.305.426.293.274.441.723.441 1.348v3.14h-.785v-3.086c0-.773-.359-1.16-1.078-1.16-.535 0-.903.149-1.11.449-.203.301-.304.731-.304 1.297v2.5h-.793v-4.824h.64l.118.66h.043c.156-.254.375-.441.648-.558.277-.129.566-.192.875-.192zm5.562 0c.575 0 1.008.141 1.305.426.293.274.442.723.442 1.348v3.14h-.786v-3.086c0-.773-.359-1.16-1.078-1.16-.535 0-.906.149-1.109.449-.203.301-.305.731-.305 1.297v2.5h-.793v-4.824h.641l.117.66h.043c.156-.254.371-.441.649-.558.277-.129.566-.192.874-.192zm7.27.09v4.824h-.648l-.118-.636h-.035c-.156.25-.371.437-.648.558-.274.114-.571.168-.883.168-.582 0-1.02-.137-1.312-.414-.293-.281-.442-.726-.442-1.34v-3.16h.801v3.106c0 .769.359 1.152 1.07 1.152.535 0 .906-.148 1.11-.449.211-.301.312-.731.312-1.297v-2.512zm3.852-.09c.578 0 1.011.141 1.304.426.297.274.442.723.442 1.348v3.14h-.782v-3.086c0-.773-.359-1.16-1.082-1.16-.531 0-.902.149-1.105.449-.203.301-.305.731-.305 1.297v2.5h-.793v-4.824h.637l.117.66h.047c.156-.254.371-.441.648-.558.274-.129.567-.192.872-.192zm4.949 0c.32 0 .605.063.855.18.258.121.477.305.66.551h.043l.11-.641h.629v4.906c0 .692-.176 1.211-.532 1.559-.347.348-.89.52-1.628.52-.708 0-1.286-.102-1.739-.305v-.731c.477.254 1.071.379 1.785.379.414 0 .735-.121.969-.367.242-.242.363-.57.363-.992v-.188c0-.074 0-.175.008-.308.004-.137.012-.231.016-.285h-.035c-.325.484-.821.726-1.492.726-.625 0-1.114-.219-1.469-.656-.348-.438-.52-1.051-.52-1.836 0-.766.172-1.375.52-1.828.355-.453.84-.684 1.457-.684zm.109.668c-.402 0-.715.16-.933.485-.223.32-.336.773-.336 1.367 0 .597.109 1.051.324 1.371.223.312.543.465.965.465.484 0 .84-.129 1.062-.387.219-.262.332-.684.332-1.266v-.191c0-.66-.113-1.129-.344-1.414-.226-.285-.582-.43-1.07-.43z" transform="scale(1.3333333)"/>
  <path id="path78" d="m23.285 139.895c0-.731.106-1.438.313-2.114.218-.687.554-1.301 1.007-1.847h.75c-.421.566-.738 1.187-.957 1.863-.207.68-.312 1.375-.312 2.09 0 .695.105 1.379.312 2.051.219.667.532 1.281.946 1.843h-.739c-.453-.527-.789-1.125-1.007-1.789-.207-.672-.313-1.371-.313-2.097zm6.219 2.464h-3.527v-.519l2.589-3.692h-2.437v-.613h3.312v.594l-2.558 3.621h2.621zm1-.484c0-.223.051-.379.16-.469s.238-.133.387-.133c.156 0 .289.043.394.133.117.09.172.246.172.469 0 .215-.055.371-.172.469-.105.094-.238.144-.394.144-.149 0-.278-.05-.387-.144-.109-.098-.16-.254-.16-.469zm4.473-5.941c.8 0 1.41.121 1.816.359.414.234.621.648.621 1.234 0 .379-.105.692-.316.946-.207.246-.512.406-.907.476v.047c.27.039.512.117.727.234.223.114.398.274.523.485s.188.484.188.82c0 .582-.199 1.031-.602 1.348-.394.32-.937.476-1.629.476h-2.257v-6.425zm.16 2.738c.551 0 .929-.09 1.133-.262.207-.18.308-.445.308-.793 0-.355-.125-.605-.379-.754-.246-.156-.64-.234-1.187-.234h-1.063v2.043zm-1.188.672v2.332h1.297c.57 0 .965-.11 1.188-.332.222-.223.332-.512.332-.875 0-.336-.118-.606-.352-.809-.226-.211-.637-.316-1.23-.316zm4.727 2.531c0-.223.051-.379.16-.469s.238-.133.387-.133c.156 0 .289.043.398.133.113.09.168.246.168.469 0 .215-.055.371-.168.469-.109.094-.242.144-.398.144-.149 0-.278-.05-.387-.144-.109-.098-.16-.254-.16-.469zm7.297.484h-.774v-4.488c0-.258.004-.465.008-.621.008-.156.016-.32.027-.488-.093.097-.183.179-.261.242-.078.066-.176.152-.297.254l-.684.558-.414-.531 1.738-1.351h.657zm6.66-3.222c0 .691-.071 1.285-.215 1.785-.145.492-.371.867-.684 1.133-.312.265-.726.394-1.242.394-.726 0-1.265-.289-1.613-.871-.34-.59-.512-1.402-.512-2.441 0-.696.071-1.289.207-1.782.145-.492.371-.867.684-1.125.312-.261.722-.394 1.234-.394.719 0 1.258.289 1.61.871.355.578.531 1.387.531 2.43zm-3.473 0c0 .883.098 1.543.297 1.98.203.438.547.66 1.035.66.481 0 .82-.218 1.024-.648.211-.438.316-1.102.316-1.992 0-.875-.105-1.532-.316-1.969-.204-.438-.543-.656-1.024-.656-.488 0-.832.218-1.035.656-.199.437-.297 1.094-.297 1.969zm4.563 2.738c0-.223.054-.379.16-.469.109-.09.238-.133.387-.133.156 0 .289.043.398.133.113.09.172.246.172.469 0 .215-.059.371-.172.469-.109.094-.242.144-.398.144-.149 0-.278-.05-.387-.144-.106-.098-.16-.254-.16-.469zm6.468-2.738c0 .691-.07 1.285-.214 1.785-.145.492-.372.867-.684 1.133-.313.265-.727.394-1.242.394-.727 0-1.262-.289-1.61-.871-.343-.59-.515-1.402-.515-2.441 0-.696.07-1.289.207-1.782.144-.492.375-.867.683-1.125.313-.261.727-.394 1.235-.394.719 0 1.258.289 1.613.871.352.578.527 1.387.527 2.43zm-3.472 0c0 .883.097 1.543.297 1.98.203.438.55.66 1.035.66.48 0 .824-.218 1.027-.648.211-.438.313-1.102.313-1.992 0-.875-.102-1.532-.313-1.969-.203-.438-.547-.656-1.027-.656-.485 0-.832.218-1.035.656-.2.437-.297 1.094-.297 1.969zm8.621 0c0 .691-.07 1.285-.215 1.785-.145.492-.371.867-.684 1.133-.312.265-.726.394-1.242.394-.726 0-1.261-.289-1.609-.871-.344-.59-.516-1.402-.516-2.441 0-.696.071-1.289.207-1.782.145-.492.371-.867.684-1.125.312-.261.723-.394 1.234-.394.719 0 1.258.289 1.61.871.355.578.531 1.387.531 2.43zm-3.473 0c0 .883.098 1.543.297 1.98.203.438.551.66 1.035.66.481 0 .821-.218 1.028-.648.207-.438.312-1.102.312-1.992 0-.875-.105-1.532-.312-1.969-.207-.438-.547-.656-1.028-.656-.484 0-.832.218-1.035.656-.199.437-.297 1.094-.297 1.969zm8.621 0c0 .691-.07 1.285-.215 1.785-.144.492-.371.867-.683 1.133-.313.265-.727.394-1.242.394-.727 0-1.262-.289-1.614-.871-.339-.59-.511-1.402-.511-2.441 0-.696.07-1.289.207-1.782.144-.492.371-.867.683-1.125.313-.261.723-.394 1.235-.394.718 0 1.257.289 1.609.871.355.578.531 1.387.531 2.43zm-3.472 0c0 .883.097 1.543.296 1.98.204.438.547.66 1.036.66.48 0 .82-.218 1.027-.648.207-.438.313-1.102.313-1.992 0-.875-.106-1.532-.313-1.969-.207-.438-.547-.656-1.027-.656-.489 0-.832.218-1.036.656-.199.437-.296 1.094-.296 1.969zm10.808-3.203-2.297 6.425h-.808l-2.293-6.425h.844l1.449 4.121c.097.265.176.515.242.75.066.226.121.445.164.656.043-.211.094-.434.16-.668.067-.231.149-.484.242-.754l1.442-4.105zm2.34 3.961c0 .726-.109 1.425-.324 2.097-.211.664-.543 1.262-1 1.789h-.738c.414-.562.726-1.176.937-1.843.215-.672.324-1.356.324-2.051 0-.715-.109-1.41-.324-2.09-.211-.676-.523-1.297-.945-1.863h.746c.457.546.789 1.16 1 1.847.215.676.324 1.383.324 2.114z" transform="scale(1.3333333)"/>
  <path id="path79" d="m173.992 128.844c0 .441-.09.844-.269 1.203-.18.355-.457.637-.828.848-.368.203-.836.304-1.407.304-.797 0-1.406-.215-1.824-.648-.414-.438-.621-1.012-.621-1.727v-4.14h.809v4.168c0 .523.136.925.414 1.214.281.289.703.434 1.269.434.582 0 1-.156 1.258-.461.266-.312.398-.711.398-1.195v-4.16h.801zm-3.726-5.465c0-.156.043-.266.125-.332.086-.074.183-.109.297-.109.113 0 .214.035.296.109.086.066.129.176.129.332 0 .152-.043.266-.129.344-.082.07-.183.105-.296.105-.114 0-.211-.035-.297-.105-.082-.078-.125-.192-.125-.344zm1.691 0c0-.156.039-.266.117-.332.086-.074.184-.109.297-.109s.215.035.297.109c.086.066.125.176.125.332 0 .152-.039.266-.125.344-.082.07-.184.105-.297.105s-.211-.035-.297-.105c-.078-.078-.117-.192-.117-.344zm4.41 2.559c0 .203-.004.394-.019.574-.004.176-.012.312-.024.414h.043c.137-.203.328-.375.567-.512.242-.141.55-.207.929-.207.598 0 1.078.207 1.438.629.367.414.551 1.035.551 1.863s-.184 1.453-.551 1.871c-.363.422-.844.629-1.438.629-.379 0-.687-.066-.929-.207-.239-.137-.43-.301-.567-.492h-.062l-.164.609h-.567v-6.839h.793zm1.36.925c-.512 0-.864.145-1.063.442-.199.293-.297.75-.297 1.367v.035c0 .594.098 1.051.289 1.367.199.313.559.469 1.09.469.43 0 .75-.16.961-.477.215-.316.324-.777.324-1.375 0-1.218-.433-1.828-1.304-1.828zm5.246-.668c.414 0 .769.09 1.062.27.301.183.527.437.684.765.164.325.242.708.242 1.145v.477h-3.301c.012.546.149.964.414 1.25.27.281.645.425 1.125.425.305 0 .574-.027.809-.082.242-.062.488-.144.738-.254v.696c-.246.105-.488.183-.73.234-.239.051-.524.078-.852.078-.457 0-.863-.09-1.215-.277-.351-.188-.621-.461-.82-.828-.191-.371-.289-.824-.289-1.36 0-.527.086-.98.262-1.359.179-.379.429-.668.746-.871.324-.207.699-.309 1.125-.309zm-.008.649c-.379 0-.68.125-.899.371-.218.238-.347.574-.39 1.008h2.457c-.004-.411-.102-.739-.285-.993-.188-.257-.481-.386-.883-.386zm5.473-.649c.089 0 .183.008.285.02.109.004.203.019.281.035l-.098.73c-.078-.019-.168-.035-.261-.046-.09-.012-.18-.016-.262-.016-.246 0-.477.066-.692.207-.218.129-.39.32-.523.566-.125.239-.188.52-.188.844v2.574h-.792v-4.824h.648l.09.883h.035c.156-.262.355-.492.601-.684.247-.191.54-.289.876-.289zm3.078 4.356c.117 0 .242-.008.367-.024.125-.027.23-.05.308-.074v.602c-.086.043-.207.078-.363.101-.156.032-.305.043-.449.043-.25 0-.484-.039-.703-.125-.207-.09-.379-.242-.512-.457-.133-.219-.199-.519-.199-.91v-2.809h-.684v-.378l.696-.313.312-1.027h.469v1.105h1.394v.613h-1.394v2.79c0 .296.07.515.207.656.144.14.328.207.551.207zm3.886-4.356c.09 0 .188.008.289.02.106.004.2.019.278.035l-.098.73c-.078-.019-.164-.035-.262-.046-.089-.012-.175-.016-.261-.016-.246 0-.477.066-.692.207-.215.129-.39.32-.523.566-.125.239-.188.52-.188.844v2.574h-.793v-4.824h.649l.09.883h.035c.156-.262.359-.492.605-.684.246-.191.535-.289.871-.289zm3.114.012c.589 0 1.023.129 1.304.387.285.258.426.668.426 1.23v3.285h-.578l-.152-.683h-.036c-.21.265-.433.461-.668.586-.226.125-.546.187-.953.187-.437 0-.8-.113-1.089-.34-.286-.234-.43-.597-.43-1.089 0-.481.187-.848.566-1.106.379-.266.961-.41 1.746-.434l.817-.027v-.289c0-.402-.086-.68-.258-.836-.176-.156-.422-.234-.738-.234-.254 0-.493.039-.723.117-.227.074-.441.156-.637.254l-.242-.594c.207-.117.457-.211.746-.289.289-.086.586-.125.899-.125zm.234 2.574c-.598.024-1.016.117-1.25.285-.227.168-.344.407-.344.711 0 .27.082.469.246.594.168.129.379.191.637.191.41 0 .746-.113 1.016-.332.273-.23.406-.578.406-1.046v-.43zm4.699-2.586c.317 0 .602.063.856.18.257.121.476.305.656.551h.043l.109-.641h.629v4.906c0 .692-.176 1.211-.531 1.559-.348.348-.891.52-1.629.52-.707 0-1.285-.102-1.734-.305v-.731c.472.254 1.066.379 1.781.379.414 0 .738-.121.973-.367.238-.242.359-.57.359-.992v-.188c0-.074.004-.175.008-.308.008-.137.011-.231.019-.285h-.035c-.324.484-.824.726-1.496.726-.625 0-1.113-.219-1.465-.656-.351-.438-.523-1.051-.523-1.836 0-.766.172-1.375.523-1.828.352-.453.84-.684 1.457-.684zm.106.668c-.399 0-.711.16-.934.485-.223.32-.332.773-.332 1.367 0 .597.106 1.051.324 1.371.219.312.543.465.961.465.488 0 .84-.129 1.063-.387.222-.262.332-.684.332-1.266v-.191c0-.66-.114-1.129-.34-1.414-.231-.285-.586-.43-1.074-.43zm7.75-.578v4.824h-.649l-.117-.636h-.035c-.156.25-.371.437-.649.558-.273.114-.57.168-.882.168-.582 0-1.02-.137-1.313-.414-.293-.281-.441-.726-.441-1.34v-3.16h.801v3.106c0 .769.359 1.152 1.07 1.152.535 0 .906-.148 1.109-.449.211-.301.313-.731.313-1.297v-2.512zm3.851-.09c.578 0 1.012.141 1.305.426.297.274.441.723.441 1.348v3.14h-.781v-3.086c0-.773-.359-1.16-1.082-1.16-.531 0-.902.149-1.105.449-.204.301-.305.731-.305 1.297v2.5h-.793v-4.824h.637l.117.66h.047c.156-.254.371-.441.648-.558.277-.129.567-.192.871-.192zm4.953 0c.317 0 .602.063.852.18.258.121.48.305.66.551h.043l.109-.641h.629v4.906c0 .692-.175 1.211-.531 1.559-.348.348-.891.52-1.629.52-.707 0-1.285-.102-1.738-.305v-.731c.476.254 1.07.379 1.785.379.414 0 .738-.121.969-.367.242-.242.363-.57.363-.992v-.188c0-.074 0-.175.008-.308.004-.137.012-.231.019-.285h-.039c-.324.484-.82.726-1.492.726-.625 0-1.113-.219-1.469-.656-.347-.438-.519-1.051-.519-1.836 0-.766.172-1.375.519-1.828.356-.453.84-.684 1.461-.684zm.106.668c-.403 0-.715.16-.934.485-.222.32-.336.773-.336 1.367 0 .597.11 1.051.325 1.371.222.312.542.465.964.465.485 0 .84-.129 1.063-.387.219-.262.332-.684.332-1.266v-.191c0-.66-.113-1.129-.344-1.414-.226-.285-.582-.43-1.07-.43zm6.859 2.914c0 .469-.176.825-.523 1.063-.348.242-.817.359-1.403.359-.336 0-.628-.027-.875-.078-.238-.055-.453-.129-.636-.226v-.719c.191.094.422.183.691.269.277.078.555.117.836.117.402 0 .695-.062.875-.191s.27-.305.27-.519c0-.122-.032-.231-.098-.325-.066-.097-.188-.191-.363-.289-.168-.097-.41-.203-.727-.324-.312-.121-.578-.238-.801-.359-.222-.121-.394-.266-.515-.434-.117-.168-.18-.383-.18-.648 0-.407.168-.723.496-.942.336-.222.774-.336 1.313-.336.296 0 .57.032.82.09.258.055.5.133.719.235l-.27.632c-.203-.086-.414-.156-.637-.218-.222-.059-.449-.09-.683-.09-.324 0-.574.054-.75.164-.168.101-.25.242-.25.422 0 .132.039.246.117.343.078.09.207.18.387.27.187.082.433.184.738.305.305.113.566.23.781.351.219.121.383.266.496.442.114.168.172.379.172.636zm4.309 0c0 .469-.172.825-.52 1.063-.347.242-.816.359-1.406.359-.336 0-.625-.027-.871-.078-.242-.055-.453-.129-.641-.226v-.719c.192.094.426.183.696.269.273.078.554.117.836.117.402 0 .691-.062.871-.191.183-.129.273-.305.273-.519 0-.122-.035-.231-.101-.325-.067-.097-.184-.191-.36-.289-.168-.097-.41-.203-.73-.324-.309-.121-.578-.238-.801-.359-.219-.121-.391-.266-.512-.434s-.179-.383-.179-.648c0-.407.164-.723.496-.942.336-.222.773-.336 1.312-.336.293 0 .566.032.82.09.258.055.496.133.719.235l-.269.632c-.204-.086-.418-.156-.641-.218-.219-.059-.449-.09-.684-.09-.324 0-.57.054-.746.164-.168.101-.25.242-.25.422 0 .132.039.246.117.343.075.09.204.18.387.27.184.082.43.184.739.305.304.113.566.23.781.351s.379.266.496.442c.113.168.168.379.168.636zm3.465-3.582c.597 0 1.074.207 1.433.621.367.414.547 1.039.547 1.875 0 .821-.18 1.446-.547 1.871-.359.426-.84.637-1.441.637-.371 0-.68-.066-.926-.207-.242-.144-.43-.308-.566-.492h-.055c.012.102.023.23.035.387.012.156.02.289.02.402v1.981h-.793v-6.985h.648l.109.66h.036c.144-.211.332-.39.566-.531.234-.144.547-.219.934-.219zm-.141.668c-.492 0-.84.137-1.047.414-.195.274-.301.696-.312 1.258v.156c0 .594.093 1.051.285 1.375.199.317.562.477 1.09.477.293 0 .535-.082.722-.242.192-.164.332-.383.422-.656.094-.282.145-.606.145-.965 0-.551-.11-.992-.324-1.321-.211-.332-.54-.496-.981-.496zm5.211-.656c.586 0 1.023.129 1.305.387.281.258.422.668.422 1.23v3.285h-.575l-.156-.683h-.035c-.211.265-.43.461-.664.586-.231.125-.547.187-.957.187-.438 0-.801-.113-1.086-.34-.289-.234-.434-.597-.434-1.089 0-.481.188-.848.567-1.106.379-.266.961-.41 1.746-.434l.82-.027v-.289c0-.402-.086-.68-.262-.836-.175-.156-.418-.234-.738-.234-.25 0-.492.039-.719.117-.23.074-.441.156-.64.254l-.242-.594c.21-.117.46-.211.746-.289.289-.086.589-.125.902-.125zm.234 2.574c-.601.024-1.019.117-1.254.285-.226.168-.339.407-.339.711 0 .27.078.469.242.594.168.129.379.191.64.191.407 0 .747-.113 1.016-.332.27-.23.406-.578.406-1.046v-.43zm5.309-2.586c.574 0 1.012.141 1.305.426.293.274.441.723.441 1.348v3.14h-.785v-3.086c0-.773-.36-1.16-1.078-1.16-.535 0-.903.149-1.106.449-.207.301-.308.731-.308 1.297v2.5h-.793v-4.824h.64l.118.66h.046c.153-.254.371-.441.645-.558.277-.129.57-.192.875-.192zm5.562 0c.575 0 1.012.141 1.305.426.293.274.442.723.442 1.348v3.14h-.786v-3.086c0-.773-.359-1.16-1.078-1.16-.535 0-.902.149-1.109.449-.203.301-.305.731-.305 1.297v2.5h-.793v-4.824h.641l.117.66h.043c.156-.254.375-.441.648-.558.278-.129.567-.192.875-.192zm7.27.09v4.824h-.645l-.117-.636h-.039c-.156.25-.371.437-.648.558-.274.114-.567.168-.879.168-.582 0-1.02-.137-1.317-.414-.293-.281-.441-.726-.441-1.34v-3.16h.801v3.106c0 .769.359 1.152 1.074 1.152.531 0 .902-.148 1.106-.449.21-.301.316-.731.316-1.297v-2.512zm3.855-.09c.575 0 1.008.141 1.305.426.293.274.438.723.438 1.348v3.14h-.782v-3.086c0-.773-.359-1.16-1.078-1.16-.535 0-.906.149-1.109.449-.203.301-.305.731-.305 1.297v2.5h-.793v-4.824h.641l.117.66h.043c.156-.254.371-.441.648-.558.278-.129.567-.192.875-.192zm4.95 0c.316 0 .601.063.855.18.258.121.477.305.656.551h.043l.11-.641h.629v4.906c0 .692-.176 1.211-.532 1.559-.347.348-.89.52-1.629.52-.707 0-1.285-.102-1.734-.305v-.731c.473.254 1.066.379 1.781.379.414 0 .739-.121.973-.367.238-.242.359-.57.359-.992v-.188c0-.074.004-.175.008-.308.008-.137.012-.231.02-.285h-.039c-.321.484-.821.726-1.493.726-.625 0-1.113-.219-1.468-.656-.348-.438-.52-1.051-.52-1.836 0-.766.172-1.375.52-1.828.355-.453.843-.684 1.461-.684zm.105.668c-.402 0-.711.16-.933.485-.223.32-.332.773-.332 1.367 0 .597.105 1.051.32 1.371.222.312.543.465.965.465.484 0 .839-.129 1.062-.387.223-.262.332-.684.332-1.266v-.191c0-.66-.113-1.129-.34-1.414-.23-.285-.586-.43-1.074-.43z" transform="scale(1.3333333)"/>
  <path id="path80" d="m188.18 139.895c0-.731.105-1.438.316-2.114.215-.687.551-1.301 1.008-1.847h.746c-.422.566-.738 1.187-.953 1.863-.211.68-.317 1.375-.317 2.09 0 .695.106 1.379.317 2.051.215.667.531 1.281.945 1.843h-.738c-.457-.527-.793-1.125-1.008-1.789-.211-.672-.316-1.371-.316-2.097zm6.218 2.464h-3.527v-.519l2.594-3.692h-2.442v-.613h3.313v.594l-2.555 3.621h2.617zm1-.484c0-.223.055-.379.161-.469.109-.09.238-.133.386-.133.157 0 .289.043.399.133.113.09.172.246.172.469 0 .215-.059.371-.172.469-.11.094-.242.144-.399.144-.148 0-.277-.05-.386-.144-.106-.098-.161-.254-.161-.469zm4.473-5.941c.805 0 1.41.121 1.817.359.414.234.621.648.621 1.234 0 .379-.106.692-.313.946-.211.246-.516.406-.91.476v.047c.269.039.512.117.73.234.219.114.395.274.52.485.129.211.191.484.191.82 0 .582-.203 1.031-.605 1.348-.395.32-.938.476-1.629.476h-2.258v-6.425zm.16 2.738c.555 0 .934-.09 1.137-.262.203-.18.305-.445.305-.793 0-.355-.125-.605-.379-.754-.246-.156-.641-.234-1.188-.234h-1.062v2.043zm-1.187.672v2.332h1.297c.57 0 .964-.11 1.187-.332.223-.223.332-.512.332-.875 0-.336-.113-.606-.348-.809-.23-.211-.64-.316-1.234-.316zm4.726 2.531c0-.223.055-.379.16-.469.11-.09.239-.133.387-.133.156 0 .289.043.399.133.113.09.172.246.172.469 0 .215-.059.371-.172.469-.11.094-.243.144-.399.144-.148 0-.277-.05-.387-.144-.105-.098-.16-.254-.16-.469zm8.539-4.437c0 .433-.117.777-.359 1.035-.238.25-.562.418-.973.504v.035c.52.062.903.222 1.153.488.254.262.379.609.379 1.035 0 .371-.086.703-.262.996-.172.289-.442.516-.809.676-.359.164-.824.242-1.394.242-.336 0-.649-.027-.938-.078s-.562-.141-.828-.273v-.735c.27.129.563.235.875.313.313.074.609.109.899.109.578 0 .992-.113 1.242-.332.258-.23.386-.543.386-.937 0-.403-.16-.692-.476-.864-.313-.179-.754-.269-1.324-.269h-.621v-.676h.632c.528 0 .926-.113 1.196-.332.277-.223.414-.516.414-.883 0-.312-.106-.551-.317-.719-.207-.175-.492-.261-.851-.261-.352 0-.649.05-.895.152s-.488.231-.726.387l-.399-.539c.231-.18.512-.336.848-.469.344-.133.73-.199 1.16-.199.672 0 1.172.152 1.496.449.328.301.492.684.492 1.145zm3.278-1.594c.562 0 1.027.133 1.386.398.36.262.539.645.539 1.141 0 .258-.054.484-.171.676-.106.191-.254.363-.442.511-.183.145-.387.274-.609.387.262.129.504.273.719.434.214.156.386.339.511.55.133.207.2.461.2.754 0 .539-.192.969-.575 1.289-.379.309-.89.465-1.531.465-.691 0-1.223-.148-1.594-.449-.371-.305-.558-.73-.558-1.277 0-.293.062-.551.179-.766.129-.215.293-.402.497-.559.203-.156.421-.285.656-.394-.313-.18-.578-.395-.801-.649-.215-.257-.324-.585-.324-.98 0-.332.086-.605.254-.828.168-.227.394-.402.683-.524.289-.117.614-.179.981-.179zm-.008.64c-.332 0-.606.082-.82.243-.211.156-.317.382-.317.683 0 .223.055.41.156.559.106.148.25.277.43.386.18.102.379.2.594.297.312-.132.574-.289.785-.476.215-.188.324-.442.324-.766 0-.301-.105-.527-.316-.683-.211-.161-.488-.243-.836-.243zm-1.344 4.246c0 .313.113.575.336.786.223.203.563.304 1.024.304.441 0 .773-.101 1-.304.234-.211.351-.481.351-.813 0-.312-.125-.57-.367-.773-.246-.211-.574-.391-.984-.547l-.141-.055c-.399.168-.699.363-.91.586-.203.215-.309.488-.309.816zm8.641-1.593c0 .691-.071 1.285-.215 1.785-.145.492-.371.867-.684 1.133-.312.265-.726.394-1.242.394-.726 0-1.262-.289-1.609-.871-.344-.59-.516-1.402-.516-2.441 0-.696.07-1.289.207-1.782.145-.492.371-.867.684-1.125.312-.261.722-.394 1.234-.394.719 0 1.258.289 1.61.871.355.578.531 1.387.531 2.43zm-3.473 0c0 .883.098 1.543.297 1.98.203.438.551.66 1.035.66.481 0 .82-.218 1.027-.648.208-.438.313-1.102.313-1.992 0-.875-.105-1.532-.313-1.969-.207-.438-.546-.656-1.027-.656-.484 0-.832.218-1.035.656-.199.437-.297 1.094-.297 1.969zm4.563 2.738c0-.223.054-.379.164-.469.105-.09.234-.133.386-.133.157 0 .286.043.395.133.113.09.172.246.172.469 0 .215-.059.371-.172.469-.109.094-.238.144-.395.144-.152 0-.281-.05-.386-.144-.11-.098-.164-.254-.164-.469zm6.472-2.738c0 .691-.074 1.285-.218 1.785-.141.492-.372.867-.684 1.133-.313.265-.727.394-1.242.394-.727 0-1.262-.289-1.61-.871-.343-.59-.511-1.402-.511-2.441 0-.696.066-1.289.207-1.782.14-.492.371-.867.683-1.125.313-.261.723-.394 1.231-.394.722 0 1.258.289 1.613.871.352.578.531 1.387.531 2.43zm-3.476 0c0 .883.101 1.543.297 1.98.207.438.55.66 1.035.66.48 0 .824-.218 1.027-.648.211-.438.317-1.102.317-1.992 0-.875-.106-1.532-.317-1.969-.203-.438-.547-.656-1.027-.656-.485 0-.828.218-1.035.656-.196.437-.297 1.094-.297 1.969zm8.625 0c0 .691-.075 1.285-.219 1.785-.145.492-.371.867-.684 1.133-.312.265-.726.394-1.242.394-.726 0-1.262-.289-1.609-.871-.344-.59-.516-1.402-.516-2.441 0-.696.071-1.289.207-1.782.145-.492.375-.867.688-1.125.308-.261.722-.394 1.23-.394.723 0 1.258.289 1.613.871.352.578.532 1.387.532 2.43zm-3.477 0c0 .883.102 1.543.297 1.98.203.438.551.66 1.035.66.481 0 .824-.218 1.028-.648.21-.438.316-1.102.316-1.992 0-.875-.106-1.532-.316-1.969-.204-.438-.547-.656-1.028-.656-.484 0-.832.218-1.035.656-.195.437-.297 1.094-.297 1.969zm8.621 0c0 .691-.07 1.285-.215 1.785-.144.492-.371.867-.683 1.133-.313.265-.727.394-1.242.394-.727 0-1.262-.289-1.61-.871-.343-.59-.515-1.402-.515-2.441 0-.696.07-1.289.207-1.782.144-.492.375-.867.683-1.125.313-.261.727-.394 1.235-.394.718 0 1.257.289 1.613.871.351.578.527 1.387.527 2.43zm-3.472 0c0 .883.097 1.543.296 1.98.204.438.551.66 1.036.66.48 0 .824-.218 1.027-.648.211-.438.312-1.102.312-1.992 0-.875-.101-1.532-.312-1.969-.203-.438-.547-.656-1.027-.656-.485 0-.832.218-1.036.656-.199.437-.296 1.094-.296 1.969zm10.808-3.203-2.293 6.425h-.812l-2.293-6.425h.843l1.45 4.121c.097.265.179.515.246.75.062.226.117.445.16.656.043-.211.098-.434.16-.668.067-.231.149-.484.246-.754l1.438-4.105zm2.34 3.961c0 .726-.105 1.425-.324 2.097-.207.664-.543 1.262-.996 1.789h-.739c.414-.562.727-1.176.934-1.843.219-.672.324-1.356.324-2.051 0-.715-.105-1.41-.324-2.09-.207-.676-.523-1.297-.945-1.863h.75c.453.546.789 1.16.996 1.847.219.676.324 1.383.324 2.114z" transform="scale(1.3333333)"/>
  <path id="path81" d="m326.34 124.684-2.293 6.425h-.813l-2.293-6.425h.844l1.449 4.121c.098.265.18.515.246.75.063.226.118.445.161.656.043-.211.097-.434.164-.668.062-.231.144-.484.242-.754l1.437-4.105zm2.449 1.511c.414 0 .77.09 1.063.27.3.183.527.437.683.765.16.325.242.708.242 1.145v.477h-3.3c.011.546.148.964.414 1.25.269.281.644.425 1.125.425.304 0 .574-.027.808-.082.238-.062.485-.144.738-.254v.696c-.246.105-.488.183-.73.234-.238.051-.523.078-.855.078-.454 0-.86-.09-1.215-.277-.348-.188-.621-.461-.817-.828-.195-.371-.289-.824-.289-1.36 0-.527.086-.98.262-1.359.18-.379.43-.668.746-.871.324-.207.699-.309 1.125-.309zm-.008.649c-.379 0-.679.125-.902.371-.215.238-.344.574-.387 1.008h2.457c-.004-.411-.101-.739-.289-.993-.183-.257-.476-.386-.879-.386zm5.469-.649c.094 0 .188.008.289.02.109.004.203.019.281.035l-.101.73c-.078-.019-.164-.035-.262-.046-.09-.012-.176-.016-.258-.016-.246 0-.476.066-.695.207-.215.129-.391.32-.52.566-.129.239-.191.52-.191.844v2.574h-.793v-4.824h.648l.09.883h.039c.157-.262.356-.492.602-.684.246-.191.535-.289.871-.289zm2.262-.257c0 .203-.008.394-.02.574-.004.176-.015.312-.027.414h.047c.136-.203.324-.375.566-.512.238-.141.547-.207.926-.207.601 0 1.082.207 1.441.629.367.414.547 1.035.547 1.863s-.18 1.453-.547 1.871c-.367.422-.847.629-1.441.629-.379 0-.688-.066-.926-.207-.242-.137-.43-.301-.566-.492h-.063l-.164.609h-.566v-6.839h.793zm1.359.925c-.512 0-.867.145-1.062.442-.2.293-.297.75-.297 1.367v.035c0 .594.093 1.051.285 1.367.199.313.562.469 1.09.469.433 0 .754-.16.965-.477.214-.316.324-.777.324-1.375 0-1.218-.438-1.828-1.305-1.828zm5.633-.668c.09 0 .187.008.289.02.105.004.199.019.277.035l-.097.73c-.078-.019-.164-.035-.262-.046-.09-.012-.176-.016-.262-.016-.246 0-.476.066-.691.207-.219.129-.391.32-.524.566-.125.239-.187.52-.187.844v2.574h-.793v-4.824h.648l.09.883h.035c.157-.262.36-.492.602-.684.246-.191.539-.289.875-.289zm3.113.012c.59 0 1.024.129 1.305.387s.426.668.426 1.23v3.285h-.578l-.153-.683h-.035c-.211.265-.434.461-.668.586-.226.125-.547.187-.953.187-.438 0-.801-.113-1.09-.34-.289-.234-.43-.597-.43-1.089 0-.481.188-.848.567-1.106.379-.266.961-.41 1.746-.434l.816-.027v-.289c0-.402-.086-.68-.258-.836-.175-.156-.421-.234-.738-.234-.254 0-.492.039-.722.117-.227.074-.442.156-.637.254l-.242-.594c.207-.117.457-.211.746-.289.285-.086.586-.125.898-.125zm.235 2.574c-.602.024-1.016.117-1.25.285-.231.168-.344.407-.344.711 0 .27.082.469.242.594.168.129.383.191.641.191.406 0 .746-.113 1.015-.332.274-.23.406-.578.406-1.046v-.43zm7.019-2.496v4.824h-.648l-.118-.636h-.035c-.156.25-.371.437-.648.558-.274.114-.57.168-.883.168-.582 0-1.019-.137-1.312-.414-.293-.281-.442-.726-.442-1.34v-3.16h.801v3.106c0 .769.359 1.152 1.07 1.152.535 0 .906-.148 1.11-.449.211-.301.312-.731.312-1.297v-2.512zm3.465 4.914c-.426 0-.805-.086-1.141-.258-.332-.175-.593-.445-.785-.812-.183-.367-.277-.832-.277-1.402 0-.594.097-1.079.297-1.45.195-.371.465-.644.8-.82.34-.172.727-.262 1.161-.262.246 0 .484.028.711.082.226.047.414.11.558.18l-.242.656c-.145-.051-.313-.105-.504-.152s-.375-.07-.543-.07c-.945 0-1.422.609-1.422 1.824 0 .582.117 1.031.344 1.344.234.304.578.457 1.035.457.266 0 .496-.028.692-.078.207-.055.39-.122.558-.2v.703c-.16.082-.34.145-.539.188-.191.047-.426.07-.703.07zm3.18-4.922c0 .239-.016.465-.047.676h.054c.157-.246.368-.433.629-.558.27-.125.563-.188.875-.188.586 0 1.028.141 1.321.422.297.277.441.723.441 1.34v3.14h-.781v-3.086c0-.773-.36-1.16-1.082-1.16-.539 0-.91.153-1.114.457-.199.301-.296.735-.296 1.297v2.492h-.793v-6.839h.793zm6.632-.082c.414 0 .766.09 1.059.27.301.183.531.437.688.765.16.325.242.708.242 1.145v.477h-3.305c.012.546.152.964.414 1.25.27.281.645.425 1.125.425.309 0 .578-.027.813-.082.238-.062.484-.144.734-.254v.696c-.246.105-.488.183-.727.234-.242.051-.527.078-.855.078-.457 0-.859-.09-1.215-.277-.348-.188-.621-.461-.82-.828-.192-.371-.285-.824-.285-1.36 0-.527.086-.98.257-1.359.18-.379.43-.668.75-.871.325-.207.7-.309 1.125-.309zm-.011.649c-.375 0-.676.125-.899.371-.215.238-.343.574-.386 1.008h2.457c-.008-.411-.102-.739-.289-.993-.188-.257-.481-.386-.883-.386zm5.472-.649c.09 0 .188.008.289.02.106.004.2.019.278.035l-.098.73c-.078-.019-.164-.035-.262-.046-.089-.012-.175-.016-.261-.016-.246 0-.477.066-.692.207-.215.129-.39.32-.523.566-.125.239-.188.52-.188.844v2.574h-.793v-4.824h.649l.09.883h.035c.156-.262.359-.492.605-.684.246-.191.535-.289.871-.289zm4.61 3.582c0 .469-.176.825-.524 1.063-.347.242-.816.359-1.402.359-.336 0-.629-.027-.875-.078-.238-.055-.453-.129-.637-.226v-.719c.192.094.422.183.692.269.277.078.554.117.836.117.402 0 .695-.062.875-.191.179-.129.269-.305.269-.519 0-.122-.035-.231-.098-.325-.066-.097-.187-.191-.363-.289-.168-.097-.41-.203-.726-.324-.313-.121-.578-.238-.801-.359s-.395-.266-.516-.434c-.117-.168-.179-.383-.179-.648 0-.407.168-.723.496-.942.336-.222.773-.336 1.312-.336.297 0 .57.032.82.09.258.055.5.133.719.235l-.269.632c-.203-.086-.414-.156-.637-.218-.223-.059-.449-.09-.684-.09-.324 0-.574.054-.75.164-.168.101-.25.242-.25.422 0 .132.039.246.118.343.078.09.207.18.386.27.188.082.43.184.739.305.304.113.566.23.781.351.219.121.383.266.496.442.113.168.172.379.172.636zm3.465-3.582c.593 0 1.07.207 1.429.621.367.414.551 1.039.551 1.875 0 .821-.184 1.446-.551 1.871-.359.426-.84.637-1.441.637-.371 0-.68-.066-.926-.207-.238-.144-.43-.308-.566-.492h-.055c.012.102.023.23.035.387.012.156.02.289.02.402v1.981h-.793v-6.985h.648l.11.66h.035c.144-.211.332-.39.566-.531.234-.144.547-.219.938-.219zm-.145.668c-.492 0-.84.137-1.043.414-.199.274-.305.696-.316 1.258v.156c0 .594.097 1.051.289 1.375.195.317.558.477 1.09.477.293 0 .531-.082.718-.242.192-.164.332-.383.422-.656.098-.282.145-.606.145-.965 0-.551-.11-.992-.324-1.321-.211-.332-.536-.496-.981-.496zm5.211-.656c.586 0 1.023.129 1.305.387.281.258.422.668.422 1.23v3.285h-.575l-.152-.683h-.039c-.207.265-.43.461-.664.586-.227.125-.547.187-.953.187-.438 0-.801-.113-1.09-.34-.289-.234-.434-.597-.434-1.089 0-.481.192-.848.571-1.106.375-.266.957-.41 1.746-.434l.816-.027v-.289c0-.402-.086-.68-.262-.836-.171-.156-.418-.234-.738-.234-.25 0-.492.039-.719.117-.226.074-.441.156-.636.254l-.246-.594c.21-.117.46-.211.75-.289.285-.086.586-.125.898-.125zm.234 2.574c-.601.024-1.019.117-1.25.285-.23.168-.343.407-.343.711 0 .27.082.469.242.594.168.129.383.191.64.191.407 0 .747-.113 1.016-.332.27-.23.406-.578.406-1.046v-.43zm5.309-2.586c.578 0 1.012.141 1.305.426.297.274.441.723.441 1.348v3.14h-.781v-3.086c0-.773-.36-1.16-1.082-1.16-.531 0-.903.149-1.106.449-.203.301-.304.731-.304 1.297v2.5h-.793v-4.824h.636l.118.66h.046c.157-.254.372-.441.649-.558.273-.129.566-.192.871-.192zm5.562 0c.579 0 1.012.141 1.305.426.293.274.442.723.442 1.348v3.14h-.782v-3.086c0-.773-.363-1.16-1.082-1.16-.535 0-.902.149-1.105.449-.203.301-.309.731-.309 1.297v2.5h-.789v-4.824h.637l.117.66h.047c.156-.254.371-.441.648-.558.274-.129.567-.192.871-.192zm7.274.09v4.824h-.649l-.117-.636h-.035c-.156.25-.375.437-.648.558-.278.114-.571.168-.883.168-.582 0-1.02-.137-1.313-.414-.296-.281-.441-.726-.441-1.34v-3.16h.801v3.106c0 .769.355 1.152 1.07 1.152.535 0 .902-.148 1.106-.449.21-.301.316-.731.316-1.297v-2.512zm3.851-.09c.575 0 1.012.141 1.305.426.293.274.442.723.442 1.348v3.14h-.786v-3.086c0-.773-.359-1.16-1.078-1.16-.535 0-.902.149-1.109.449-.203.301-.305.731-.305 1.297v2.5h-.793v-4.824h.641l.117.66h.043c.156-.254.375-.441.648-.558.278-.129.567-.192.875-.192zm4.95 0c.316 0 .601.063.855.18.258.121.477.305.656.551h.047l.106-.641h.633v4.906c0 .692-.18 1.211-.532 1.559-.347.348-.89.52-1.629.52-.711 0-1.289-.102-1.738-.305v-.731c.473.254 1.067.379 1.781.379.414 0 .739-.121.973-.367.238-.242.359-.57.359-.992v-.188c0-.074.004-.175.008-.308.008-.137.012-.231.02-.285h-.035c-.325.484-.825.726-1.496.726-.622 0-1.114-.219-1.465-.656-.348-.438-.524-1.051-.524-1.836 0-.766.176-1.375.524-1.828.351-.453.839-.684 1.457-.684zm.109.668c-.402 0-.715.16-.937.485-.223.32-.332.773-.332 1.367 0 .597.105 1.051.324 1.371.222.312.543.465.961.465.488 0 .84-.129 1.062-.387.223-.262.332-.684.332-1.266v-.191c0-.66-.113-1.129-.34-1.414-.23-.285-.586-.43-1.07-.43z" transform="scale(1.3333333)"/>
  <path id="path82" d="m354.957 139.895c0-.731.105-1.438.313-2.114.218-.687.554-1.301 1.011-1.847h.746c-.422.566-.738 1.187-.953 1.863-.211.68-.316 1.375-.316 2.09 0 .695.105 1.379.316 2.051.215.667.528 1.281.942 1.843h-.735c-.457-.527-.793-1.125-1.011-1.789-.208-.672-.313-1.371-.313-2.097zm7.02 2.464h-4.25v-.656l1.683-1.699c.324-.324.598-.613.82-.867.223-.25.391-.496.504-.735.114-.246.172-.515.172-.804 0-.352-.105-.618-.316-.801-.211-.184-.485-.277-.82-.277-.309 0-.586.054-.829.16-.23.109-.472.261-.718.453l-.422-.531c.25-.211.539-.387.863-.532.332-.152.699-.226 1.106-.226.601 0 1.074.152 1.421.461.352.3.524.715.524 1.25 0 .336-.07.652-.207.945s-.328.586-.574.871-.536.586-.868.91l-1.339 1.324v.036h3.25zm4.906-4.921c0 .433-.121.777-.363 1.035-.239.25-.563.418-.969.504v.035c.515.062.898.222 1.152.488.25.262.375.609.375 1.035 0 .371-.086.703-.262.996-.171.289-.441.516-.808.676-.36.164-.824.242-1.395.242-.336 0-.648-.027-.937-.078-.285-.051-.563-.141-.828-.273v-.735c.273.129.562.235.875.313.312.074.613.109.898.109.578 0 .992-.113 1.242-.332.258-.23.387-.543.387-.937 0-.403-.156-.692-.477-.864-.312-.179-.753-.269-1.32-.269h-.621v-.676h.629c.527 0 .926-.113 1.195-.332.278-.223.414-.516.414-.883 0-.312-.105-.551-.312-.719-.211-.175-.496-.261-.856-.261-.347 0-.644.05-.89.152s-.492.231-.731.387l-.394-.539c.226-.18.508-.336.843-.469.344-.133.731-.199 1.161-.199.671 0 1.171.152 1.496.449.328.301.496.684.496 1.145zm5.418 1.699c0 .691-.074 1.285-.219 1.785-.144.492-.371.867-.684 1.133-.312.265-.726.394-1.242.394-.726 0-1.261-.289-1.609-.871-.344-.59-.512-1.402-.512-2.441 0-.696.067-1.289.207-1.782.141-.492.371-.867.684-1.125.308-.261.722-.394 1.23-.394.723 0 1.258.289 1.614.871.351.578.531 1.387.531 2.43zm-3.477 0c0 .883.102 1.543.297 1.98.207.438.551.66 1.035.66.481 0 .824-.218 1.028-.648.211-.438.316-1.102.316-1.992 0-.875-.105-1.532-.316-1.969-.204-.438-.547-.656-1.028-.656-.484 0-.828.218-1.035.656-.195.437-.297 1.094-.297 1.969zm10.809-3.203-2.293 6.425h-.809l-2.297-6.425h.848l1.449 4.121c.094.265.176.515.242.75.067.226.118.445.161.656.043-.211.097-.434.164-.668.066-.231.144-.484.242-.754l1.441-4.105zm2.34 3.961c0 .726-.106 1.425-.325 2.097-.207.664-.543 1.262-.996 1.789h-.738c.414-.562.727-1.176.934-1.843.218-.672.324-1.356.324-2.051 0-.715-.106-1.41-.324-2.09-.207-.676-.524-1.297-.942-1.863h.746c.453.546.789 1.16.996 1.847.219.676.325 1.383.325 2.114z" transform="scale(1.3333333)"/>
  <path id="path83" d="m36.203 10.871h-.953l-2.277-3.07-.657.574v2.496h-.812v-6.426h.812v3.168c.18-.207.364-.41.547-.613.188-.203.375-.406.559-.613l1.738-1.942h.945l-2.546 2.797zm3.016-4.914c.09 0 .187.004.289.016.105.007.199.019.277.039l-.097.726c-.079-.015-.165-.031-.262-.043-.09-.011-.176-.019-.262-.019-.246 0-.476.07-.691.207-.219.133-.391.32-.524.566-.125.242-.187.524-.187.848v2.574h-.793v-4.824h.648l.09.883h.035c.156-.266.36-.492.606-.688.242-.191.535-.285.871-.285zm3.113.008c.59 0 1.023.129 1.305.387.281.257.425.668.425 1.234v3.285h-.578l-.152-.683h-.035c-.211.261-.434.457-.668.582-.227.128-.547.191-.953.191-.438 0-.801-.113-1.09-.344-.289-.234-.43-.597-.43-1.09 0-.476.188-.847.567-1.105.379-.266.961-.406 1.746-.434l.816-.027v-.285c0-.403-.086-.684-.258-.84-.175-.152-.422-.231-.738-.231-.254 0-.492.04-.723.118-.226.07-.441.152-.636.25l-.242-.594c.207-.113.457-.211.746-.289.289-.082.586-.125.898-.125zm.234 2.574c-.601.023-1.015.121-1.25.289-.23.168-.343.402-.343.711 0 .27.082.465.242.594.168.125.383.187.64.187.411 0 .747-.109 1.016-.332.274-.226.406-.578.406-1.043v-.433zm5.211-1.883h-1.215v4.215h-.792v-4.215h-.844v-.367l.844-.269v-.282c0-.621.14-1.07.414-1.34.277-.277.66-.414 1.152-.414.191 0 .367.02.523.055.161.031.301.066.414.109l-.207.622c-.097-.032-.207-.063-.332-.09-.129-.032-.257-.047-.386-.047-.266 0-.465.09-.598.269-.125.176-.188.45-.188.828v.317h1.215zm2.485 3.656c.121 0 .242-.007.367-.027.129-.023.23-.047.309-.074v.605c-.086.043-.204.075-.36.098-.156.031-.308.047-.453.047-.25 0-.484-.043-.699-.129-.211-.09-.383-.242-.516-.457-.129-.215-.195-.52-.195-.91v-2.809h-.684v-.375l.692-.316.316-1.027h.465v1.109h1.398v.609h-1.398v2.793c0 .293.07.512.207.656.144.137.328.207.551.207zm4.754-2.167c-.078-.247-.149-.489-.207-.723-.055-.238-.098-.426-.129-.559h-.035c-.024.133-.063.321-.118.559-.054.234-.121.476-.207.73l-.863 2.707h-.898l-1.325-4.824h.821l.664 2.574c.066.258.129.52.187.786.063.261.102.48.129.656h.035c.024-.102.051-.227.082-.379.036-.149.075-.305.118-.469.039-.168.082-.316.125-.449l.855-2.719h.863l.828 2.719c.067.203.129.426.188.668.066.238.113.445.137.621h.035c.019-.152.058-.359.117-.621.066-.266.137-.535.207-.813l.676-2.574h.808l-1.339 4.824h-.93zm5.82-2.188c.414 0 .769.09 1.062.27.301.179.528.433.684.765.164.324.242.703.242 1.141v.476h-3.301c.012.547.149.965.415 1.254.269.282.644.422 1.124.422.305 0 .575-.027.809-.082.242-.058.488-.144.738-.25v.692c-.246.109-.488.187-.73.234-.238.055-.524.082-.852.082-.457 0-.863-.094-1.215-.281-.351-.184-.621-.461-.82-.828-.191-.372-.289-.825-.289-1.36 0-.527.086-.98.262-1.355.18-.379.43-.672.746-.875.324-.203.699-.305 1.125-.305zm-.008.648c-.379 0-.68.122-.902.368-.215.238-.344.578-.387 1.007h2.457c-.004-.406-.101-.738-.285-.988-.188-.258-.481-.387-.883-.387zm5.473-.648c.09 0 .183.004.285.016.109.007.203.019.281.039l-.097.726c-.079-.015-.168-.031-.262-.043-.09-.011-.18-.019-.262-.019-.246 0-.476.07-.695.207-.215.133-.387.32-.52.566-.125.242-.191.524-.191.848v2.574h-.789v-4.824h.648l.09.883h.035c.156-.266.356-.492.602-.688.246-.191.539-.285.875-.285zm2.25 1.645c0 .097-.008.222-.02.378-.004.157-.011.293-.015.407h.035c.035-.051.09-.117.16-.207.074-.09.144-.18.215-.27.078-.098.144-.176.199-.234l1.539-1.629h.926l-1.949 2.058 2.086 2.766h-.954l-1.675-2.25-.547.477v1.773h-.785v-6.84h.785z" transform="scale(1.3333333)"/>
  <path id="path84" d="m361.824 10.871h-.808v-3h-3.293v3h-.813v-6.426h.813v2.715h3.293v-2.715h.808zm3.477-4.906c.586 0 1.023.129 1.304.387.282.257.422.668.422 1.234v3.285h-.574l-.156-.683h-.035c-.211.261-.43.457-.664.582-.231.128-.547.191-.957.191-.438 0-.801-.113-1.086-.344-.289-.234-.434-.597-.434-1.09 0-.476.188-.847.567-1.105.378-.266.96-.406 1.746-.434l.82-.027v-.285c0-.403-.086-.684-.262-.84-.176-.152-.418-.231-.738-.231-.25 0-.492.04-.719.118-.23.07-.441.152-.64.25l-.243-.594c.211-.113.461-.211.746-.289.29-.082.59-.125.903-.125zm.234 2.574c-.601.023-1.019.121-1.254.289-.226.168-.34.402-.34.711 0 .27.079.465.243.594.168.125.378.187.64.187.406 0 .746-.109 1.016-.332.269-.226.406-.578.406-1.043v-.433zm7.02-2.492v4.824h-.649l-.117-.641h-.035c-.156.254-.375.438-.649.559-.277.113-.57.172-.882.172-.582 0-1.02-.141-1.313-.414-.297-.281-.441-.731-.441-1.344v-3.156h.801v3.105c0 .766.355 1.153 1.07 1.153.535 0 .902-.153 1.105-.453.211-.297.317-.731.317-1.293v-2.512zm4.668 3.492c0 .465-.172.82-.52 1.063-.348.238-.816.359-1.406.359-.336 0-.625-.027-.871-.082-.242-.055-.453-.129-.641-.227v-.718c.192.097.426.187.695.269.274.078.555.117.836.117.403 0 .692-.062.872-.187.183-.133.273-.309.273-.524 0-.121-.035-.226-.102-.324-.066-.094-.183-.191-.359-.289-.168-.094-.41-.203-.73-.32-.309-.121-.579-.242-.801-.364-.219-.117-.391-.261-.512-.429s-.18-.387-.18-.649c0-.41.164-.722.496-.945.336-.223.774-.332 1.313-.332.293 0 .566.027.82.09.258.055.496.133.719.234l-.27.629c-.203-.086-.417-.156-.64-.215-.219-.062-.449-.09-.684-.09-.324 0-.57.051-.746.161-.168.101-.25.242-.25.422 0 .132.039.246.113.343.079.09.207.18.391.27.184.086.43.187.734.304.309.118.571.231.786.352.214.121.379.27.496.441.113.168.168.383.168.641zm1.965-3.504c0 .242-.016.465-.047.676h.054c.157-.246.367-.43.629-.559.27-.125.563-.187.875-.187.586 0 1.028.14 1.321.422.296.277.441.722.441 1.343v3.141h-.781v-3.09c0-.773-.36-1.16-1.082-1.16-.539 0-.91.152-1.114.461-.199.297-.296.73-.296 1.293v2.496h-.793v-6.84h.793zm6.597-.07c.586 0 1.02.129 1.305.387.281.257.422.668.422 1.234v3.285h-.578l-.153-.683h-.035c-.211.261-.434.457-.664.582-.23.128-.547.191-.957.191-.437 0-.801-.113-1.086-.344-.289-.234-.434-.597-.434-1.09 0-.476.188-.847.567-1.105.379-.266.961-.406 1.746-.434l.82-.027v-.285c0-.403-.09-.684-.261-.84-.176-.152-.422-.231-.739-.231-.25 0-.492.04-.718.118-.231.07-.442.152-.641.25l-.242-.594c.211-.113.457-.211.746-.289.289-.082.59-.125.902-.125zm.231 2.574c-.598.023-1.016.121-1.25.289-.227.168-.34.402-.34.711 0 .27.078.465.242.594.168.125.379.187.637.187.41 0 .75-.109 1.019-.332.27-.226.403-.578.403-1.043v-.433zm3.781 2.332h-.793v-6.84h.793zm3.141-.559c.121 0 .242-.007.371-.027.125-.023.226-.047.304-.074v.605c-.082.043-.203.075-.359.098-.156.031-.305.047-.449.047-.254 0-.489-.043-.703-.129-.211-.09-.383-.242-.512-.457-.133-.215-.199-.52-.199-.91v-2.809h-.684v-.375l.691-.316.317-1.027h.469v1.109h1.394v.609h-1.394v2.793c0 .293.066.512.207.656.144.137.324.207.547.207z" transform="scale(1.3333333)"/>
  <path id="path85" d="m109.48 10.871h-.808v-5.715h-2.008v-.711h4.816v.711h-2zm4.665-4.914c.089 0 .183.004.285.016.109.007.203.019.281.039l-.102.726c-.078-.015-.164-.031-.257-.043-.09-.011-.18-.019-.262-.019-.246 0-.477.07-.695.207-.215.133-.387.32-.52.566-.125.242-.191.524-.191.848v2.574h-.789v-4.824h.648l.09.883h.035c.156-.266.355-.492.602-.688.246-.191.539-.285.875-.285zm3.113.008c.586 0 1.023.129 1.304.387.282.257.422.668.422 1.234v3.285h-.574l-.152-.683h-.039c-.207.261-.43.457-.664.582-.231.128-.547.191-.953.191-.442 0-.801-.113-1.09-.344-.289-.234-.434-.597-.434-1.09 0-.476.192-.847.567-1.105.378-.266.96-.406 1.746-.434l.82-.027v-.285c0-.403-.086-.684-.262-.84-.172-.152-.418-.231-.738-.231-.25 0-.492.04-.719.118-.226.07-.441.152-.64.25l-.243-.594c.211-.113.461-.211.746-.289.29-.082.59-.125.903-.125zm.234 2.574c-.601.023-1.019.121-1.254.289-.226.168-.34.402-.34.711 0 .27.082.465.243.594.168.125.382.187.64.187.407 0 .746-.109 1.016-.332.269-.226.406-.578.406-1.043v-.433zm5.211-1.883h-1.215v4.215h-.793v-4.215h-.847v-.367l.847-.269v-.282c0-.621.137-1.07.414-1.34.278-.277.661-.414 1.153-.414.191 0 .367.02.519.055.164.031.301.066.414.109l-.207.622c-.093-.032-.207-.063-.332-.09-.125-.032-.254-.047-.386-.047-.262 0-.461.09-.594.269-.125.176-.188.45-.188.828v.317h1.215zm5.067 1.793c0 .797-.204 1.414-.614 1.856-.402.437-.945.656-1.636.656-.426 0-.809-.098-1.145-.289-.328-.199-.59-.484-.781-.856-.192-.378-.289-.832-.289-1.367 0-.797.203-1.414.601-1.844.403-.433.949-.648 1.641-.648.437 0 .82.098 1.152.297.336.191.598.473.781.844.192.367.29.816.29 1.351zm-3.645 0c0 .571.109 1.024.332 1.36.227.328.59.496 1.078.496s.844-.168 1.074-.496c.227-.336.34-.789.34-1.36 0-.57-.113-1.015-.34-1.34-.23-.324-.589-.488-1.082-.488-.492 0-.847.164-1.07.488-.223.325-.332.77-.332 1.34z" transform="scale(1.3333333)"/>
  <path id="path86" d="m307.48 10.871h-.808v-5.715h-2.008v-.711h4.816v.711h-2zm4.665-4.914c.089 0 .183.004.285.016.109.007.203.019.281.039l-.102.726c-.078-.015-.164-.031-.257-.043-.09-.011-.18-.019-.262-.019-.246 0-.477.07-.695.207-.215.133-.387.32-.52.566-.125.242-.191.524-.191.848v2.574h-.789v-4.824h.648l.09.883h.035c.156-.266.355-.492.602-.688.246-.191.539-.285.875-.285zm3.113.008c.586 0 1.023.129 1.304.387.282.257.422.668.422 1.234v3.285h-.574l-.152-.683h-.039c-.207.261-.43.457-.664.582-.231.128-.547.191-.953.191-.442 0-.801-.113-1.09-.344-.289-.234-.434-.597-.434-1.09 0-.476.192-.847.567-1.105.378-.266.96-.406 1.746-.434l.82-.027v-.285c0-.403-.086-.684-.262-.84-.172-.152-.418-.231-.738-.231-.25 0-.492.04-.719.118-.226.07-.441.152-.64.25l-.243-.594c.211-.113.461-.211.746-.289.29-.082.59-.125.903-.125zm.234 2.574c-.601.023-1.019.121-1.254.289-.226.168-.34.402-.34.711 0 .27.082.465.243.594.168.125.382.187.64.187.407 0 .746-.109 1.016-.332.269-.226.406-.578.406-1.043v-.433zm5.211-1.883h-1.215v4.215h-.793v-4.215h-.847v-.367l.847-.269v-.282c0-.621.137-1.07.414-1.34.278-.277.661-.414 1.153-.414.191 0 .367.02.519.055.164.031.301.066.414.109l-.207.622c-.093-.032-.207-.063-.332-.09-.125-.032-.254-.047-.386-.047-.262 0-.461.09-.594.269-.125.176-.188.45-.188.828v.317h1.215zm5.067 1.793c0 .797-.204 1.414-.614 1.856-.402.437-.945.656-1.636.656-.426 0-.809-.098-1.145-.289-.328-.199-.59-.484-.781-.856-.192-.378-.289-.832-.289-1.367 0-.797.203-1.414.601-1.844.403-.433.949-.648 1.641-.648.437 0 .82.098 1.152.297.336.191.598.473.781.844.192.367.29.816.29 1.351zm-3.645 0c0 .571.109 1.024.332 1.36.227.328.59.496 1.078.496s.844-.168 1.074-.496c.227-.336.34-.789.34-1.36 0-.57-.113-1.015-.34-1.34-.23-.324-.589-.488-1.082-.488-.492 0-.847.164-1.07.488-.223.325-.332.77-.332 1.34z" transform="scale(1.3333333)"/>
 </g>
</svg>
