<svg xmlns="http://www.w3.org/2000/svg" width="270.46" height="265.757" baseProfile="full" viewBox="0 0 343 338"><g stroke-linecap="square" stroke-miterlimit="10"><g fill="#0c0" fill-opacity=".349" fill-rule="evenodd" clip-path="url(#clip1)"><path d="m86.629 38.773.168-.511.206-.362.239-.316.271-.293.208-.196.305-.256.293-.181.342-.21.359-.219.336-.204.21-.126.264-.16.216-.128.312-.186.298-.177.675-.397.506-.295.523-.302.463-.265.622-.353.479-.269.555-.309.57-.314.514-.281.687-.372.585-.313.592-.313 1.009-.527 1.399-.715 1.715-.855 1.9-.911 1.99-.925 3-1.328 3.01-1.262 3.14-1.238 3.13-1.156 2.72-.946 2.87-.938 2.77-.844 3.37-.956 2.94-.767 3.06-.737 3.46-.755 3.7-.716 2.34-.406 2.37-.374 2.45-.349 1.78-.229 2.01-.233 2.02-.208 1.93-.174 1.64-.13 1.94-.131 2.12-.115 3.26-.121 4.24-.058 3.03.03 3.63.111 3.16.166 3.39.249 3.08.289 3.24.371 3.66.501 3.52.565 3.1.566 3.27.666 3.16.713 2.95.727 4.21 1.147 4.26 1.285 2.97.978 3.43 1.208 3.09 1.166 2.48.993 2.86 1.204 2.97 1.322 2.38 1.113 2.6 1.275 2.65 1.359 2.77 1.49 2.08 1.162 1.23.71 1.24.734 1.72 1.037.46.332.22.174.2.182.15.135.14.151.16.174.13.165.12.173.07.12.1.197.08.19.05.163.05.18.02.214v.215l-.04.334-.12.354-.1.208-.19.305-.2.258-.22.236-.3.287-.37.295-.35.254-.52.336-.61.344-.59.301-.74.347-.63.269-1 .388-.77.276-.72.242-.78.248-.76.229-.85.243-.93.249-1.21.308-1.32.316-2.13.466-2.03.407-1.69.313-2.07.357-2.14.344-2.22.33-2.53.346-2.46.313-2.85.332-2.64.282-3.14.307-3.16.28-3.55.283-3.32.237-3 .19-2.98.171-3.32.167-3.47.151-3.06.113-3.07.096-3.32.084-3.65.069-3.73.046-5.23.023-3.1-.01-5.04-.051-3.92-.071-3.61-.09-4.37-.141-3.69-.149-3.32-.156-3.38-.183-3.39-.208-3.61-.251-3.76-.295-6.17-.568-6.72-.755-4.63-.621-3.25-.496-3.19-.546-2.89-.556-2.675-.579-2.936-.729-2.694-.788-1.288-.434-1.37-.519-1.239-.54-.81-.406-.71-.405-.63-.417-.541-.427-.271-.253-.423-.489-.197-.304-.137-.283-.101-.311-.051-.349z"/></g><g fill="#0c0" fill-opacity=".2" fill-rule="evenodd" clip-path="url(#clip2)"><path d="m87.083 40.464.423.489.271.253.541.427.63.417.71.405.81.406 1.239.54 1.37.519 1.288.434 2.694.788 2.936.729 2.675.579 2.89.556 3.19.546 3.25.496 4.63.621 6.72.755 6.17.568 3.76.295 3.61.251 3.39.208 3.38.183 3.32.156 3.69.149 4.37.141 3.61.09 3.92.071 5.04.051 3.1.01 5.23-.023 3.73-.046 3.65-.069 3.32-.084 3.07-.096 3.06-.113 3.47-.151 3.32-.167 2.98-.171 3-.19 3.32-.237 3.55-.283 3.16-.28 3.14-.307 2.64-.282 2.85-.332 2.46-.313 2.53-.346 2.22-.33 2.14-.344 2.07-.357 1.69-.313 2.03-.407 2.13-.466 1.32-.316 1.21-.308.93-.249.85-.243.76-.229.78-.248.72-.242.77-.276 1-.388.63-.269.74-.347.59-.301.61-.344.52-.336.35-.254.37-.295.3-.287.22-.236.2-.258-83.63 128.326z"/></g><g fill="silver" fill-opacity=".247" fill-rule="evenodd" clip-path="url(#clip3)"><path d="M14.249 168.79 85.683 38.316 170.71 168.79z"/></g><g fill="silver" fill-opacity=".247" fill-rule="evenodd" clip-path="url(#clip4)"><path d="M327.17 168.79 255.74 38.316 170.71 168.79z"/></g><g fill="silver" fill-opacity=".247" fill-rule="evenodd" clip-path="url(#clip5)"><path d="M14.249 168.79H327.17L170.71 324.22z"/></g><g fill="none" stroke="silver" stroke-linecap="round" stroke-linejoin="round" stroke-width="1.5" clip-path="url(#clip6)"><path d="M88.026 36.839C28.674 73.541 1.036 144.9 20.318 211.66c19.283 66.76 80.802 112.71 150.722 112.56 69.91-.14 131.24-46.34 150.24-113.18s-8.93-138.086-68.44-174.542"/></g><g fill="none" stroke="#090" stroke-dasharray="5.0000,4.0000" stroke-linecap="butt" stroke-linejoin="round" clip-path="url(#clip7)"><path d="M254.81 39.141c0-6.874-37.65-12.446-84.1-12.446-46.45 0-84.104 5.572-84.104 12.446s37.654 12.446 84.104 12.446c46.45 0 84.1-5.572 84.1-12.446z"/></g><g fill="silver" fill-opacity=".247" clip-path="url(#clip8)"><path d="M85.683 38.316C41.141 66.962 14.249 116.08 14.249 168.79"/></g><g fill="none" stroke="silver" stroke-linecap="round" stroke-linejoin="round" stroke-opacity="0" clip-path="url(#clip9)"><path stroke="none" d="M85.683 38.316C41.141 66.962 14.249 116.08 14.249 168.79"/></g><g fill="silver" fill-opacity=".247" clip-path="url(#clip10)"><path d="M255.74 38.316c44.54 28.646 71.43 77.764 71.43 130.474"/></g><g fill="none" stroke="silver" stroke-linecap="round" stroke-linejoin="round" stroke-opacity="0" stroke-width=".5" clip-path="url(#clip11)"><path stroke="none" d="M255.74 38.316c44.54 28.646 71.43 77.764 71.43 130.474"/></g><g fill="silver" fill-opacity=".247" clip-path="url(#clip12)"><path d="M14.249 168.79c0 85.84 70.05 155.43 156.461 155.43"/></g><g fill="none" stroke="silver" stroke-linecap="round" stroke-linejoin="round" stroke-opacity="0" stroke-width=".5" clip-path="url(#clip13)"><path stroke="none" d="M14.249 168.79c0 85.84 70.05 155.43 156.461 155.43"/></g><g fill="silver" fill-opacity=".247" clip-path="url(#clip14)"><path d="M170.71 324.22c86.41 0 156.46-69.59 156.46-155.43"/></g><g fill="none" stroke="silver" stroke-linecap="round" stroke-linejoin="round" stroke-opacity="0" stroke-width=".5" clip-path="url(#clip15)"><path stroke="none" d="M170.71 324.22c86.41 0 156.46-69.59 156.46-155.43"/></g><g fill="none" stroke="#0c0" stroke-linecap="round" stroke-linejoin="round" stroke-width="1.5" clip-path="url(#clip16)"><path d="m86.629 38.773.168-.511"/></g><g fill="none" stroke="#0c0" stroke-linecap="round" stroke-linejoin="round" stroke-width="1.5" clip-path="url(#clip17)"><path d="m86.797 38.262.206-.362"/></g><g fill="none" stroke="#0c0" stroke-linecap="round" stroke-linejoin="round" stroke-width="1.5" clip-path="url(#clip18)"><path d="m87.003 37.9.239-.316"/></g><g fill="none" stroke="#0c0" stroke-linecap="round" stroke-linejoin="round" stroke-width="1.5" clip-path="url(#clip19)"><path d="m87.242 37.584.271-.293"/></g><g fill="none" stroke="#0c0" stroke-linecap="round" stroke-linejoin="round" stroke-width="1.5" clip-path="url(#clip20)"><path d="m87.513 37.291.208-.196"/></g><g fill="none" stroke="#0c0" stroke-linecap="round" stroke-linejoin="round" stroke-width="1.5" clip-path="url(#clip21)"><path d="m87.721 37.095.305-.256"/></g><g fill="none" stroke="#0c0" stroke-linecap="round" stroke-linejoin="round" stroke-width="1.5" clip-path="url(#clip22)"><path d="m88.026 36.839.293-.181"/></g><g fill="none" stroke="#0c0" stroke-linecap="round" stroke-linejoin="round" stroke-width="1.5" clip-path="url(#clip23)"><path d="m88.319 36.658.342-.21"/></g><g fill="none" stroke="#0c0" stroke-linecap="round" stroke-linejoin="round" stroke-width="1.5" clip-path="url(#clip24)"><path d="m88.661 36.448.359-.219"/></g><g fill="none" stroke="#0c0" stroke-linecap="round" stroke-linejoin="round" stroke-width="1.5" clip-path="url(#clip25)"><path d="m89.02 36.229.336-.204"/></g><g fill="none" stroke="#0c0" stroke-linecap="round" stroke-linejoin="round" stroke-width="1.5" clip-path="url(#clip26)"><path d="m89.356 36.025.21-.126"/></g><g fill="none" stroke="#0c0" stroke-linecap="round" stroke-linejoin="round" stroke-width="1.5" clip-path="url(#clip27)"><path d="m89.566 35.899.264-.16"/></g><g fill="none" stroke="#0c0" stroke-linecap="round" stroke-linejoin="round" stroke-width="1.5" clip-path="url(#clip28)"><path d="m89.83 35.739.216-.128"/></g><g fill="none" stroke="#0c0" stroke-linecap="round" stroke-linejoin="round" stroke-width="1.5" clip-path="url(#clip29)"><path d="m90.046 35.611.312-.186"/></g><g fill="none" stroke="#0c0" stroke-linecap="round" stroke-linejoin="round" stroke-width="1.5" clip-path="url(#clip30)"><path d="m90.358 35.425.298-.177"/></g><g fill="none" stroke="#0c0" stroke-linecap="round" stroke-linejoin="round" stroke-width="1.5" clip-path="url(#clip31)"><path d="m90.656 35.248.675-.397"/></g><g fill="none" stroke="#0c0" stroke-linecap="round" stroke-linejoin="round" stroke-width="1.5" clip-path="url(#clip32)"><path d="m91.331 34.851.506-.295"/></g><g fill="none" stroke="#0c0" stroke-linecap="round" stroke-linejoin="round" stroke-width="1.5" clip-path="url(#clip33)"><path d="m91.837 34.556.523-.302"/></g><g fill="none" stroke="#0c0" stroke-linecap="round" stroke-linejoin="round" stroke-width="1.5" clip-path="url(#clip34)"><path d="m92.36 34.254.463-.265"/></g><g fill="none" stroke="#0c0" stroke-linecap="round" stroke-linejoin="round" stroke-width="1.5" clip-path="url(#clip35)"><path d="m92.823 33.989.622-.353"/></g><g fill="none" stroke="#0c0" stroke-linecap="round" stroke-linejoin="round" stroke-width="1.5" clip-path="url(#clip36)"><path d="m93.445 33.636.479-.269"/></g><g fill="none" stroke="#0c0" stroke-linecap="round" stroke-linejoin="round" stroke-width="1.5" clip-path="url(#clip37)"><path d="m93.924 33.367.555-.309"/></g><g fill="none" stroke="#0c0" stroke-linecap="round" stroke-linejoin="round" stroke-width="1.5" clip-path="url(#clip38)"><path d="m94.479 33.058.57-.314"/></g><g fill="none" stroke="#0c0" stroke-linecap="round" stroke-linejoin="round" stroke-width="1.5" clip-path="url(#clip39)"><path d="m95.049 32.744.514-.281"/></g><g fill="none" stroke="#0c0" stroke-linecap="round" stroke-linejoin="round" stroke-width="1.5" clip-path="url(#clip40)"><path d="m95.563 32.463.687-.372"/></g><g fill="none" stroke="#0c0" stroke-linecap="round" stroke-linejoin="round" stroke-width="1.5" clip-path="url(#clip41)"><path d="m96.25 32.091.585-.313"/></g><g fill="none" stroke="#0c0" stroke-linecap="round" stroke-linejoin="round" stroke-width="1.5" clip-path="url(#clip42)"><path d="m96.835 31.778.592-.313"/></g><g fill="none" stroke="#0c0" stroke-linecap="round" stroke-linejoin="round" stroke-width="1.5" clip-path="url(#clip43)"><path d="m97.427 31.465 1.009-.527"/></g><g fill="none" stroke="#0c0" stroke-linecap="round" stroke-linejoin="round" stroke-width="1.5" clip-path="url(#clip44)"><path d="m98.436 30.938 1.399-.715"/></g><g fill="none" stroke="#0c0" stroke-linecap="round" stroke-linejoin="round" stroke-width="1.5" clip-path="url(#clip45)"><path d="m99.835 30.223 1.715-.855"/></g><g fill="none" stroke="#0c0" stroke-linecap="round" stroke-linejoin="round" stroke-width="1.5" clip-path="url(#clip46)"><path d="m101.55 29.368 1.9-.911"/></g><g fill="none" stroke="#0c0" stroke-linecap="round" stroke-linejoin="round" stroke-width="1.5" clip-path="url(#clip47)"><path d="m103.45 28.457 1.99-.925"/></g><g fill="none" stroke="#0c0" stroke-linecap="round" stroke-linejoin="round" stroke-width="1.5" clip-path="url(#clip48)"><path d="m105.44 27.532 3-1.328"/></g><g fill="none" stroke="#0c0" stroke-linecap="round" stroke-linejoin="round" stroke-width="1.5" clip-path="url(#clip49)"><path d="m108.44 26.204 3.01-1.262"/></g><g fill="none" stroke="#0c0" stroke-linecap="round" stroke-linejoin="round" stroke-width="1.5" clip-path="url(#clip50)"><path d="m111.45 24.942 3.14-1.238"/></g><g fill="none" stroke="#0c0" stroke-linecap="round" stroke-linejoin="round" stroke-width="1.5" clip-path="url(#clip51)"><path d="m114.59 23.704 3.13-1.156"/></g><g fill="none" stroke="#0c0" stroke-linecap="round" stroke-linejoin="round" stroke-width="1.5" clip-path="url(#clip52)"><path d="m117.72 22.548 2.72-.946"/></g><g fill="none" stroke="#0c0" stroke-linecap="round" stroke-linejoin="round" stroke-width="1.5" clip-path="url(#clip53)"><path d="m120.44 21.602 2.87-.938"/></g><g fill="none" stroke="#0c0" stroke-linecap="round" stroke-linejoin="round" stroke-width="1.5" clip-path="url(#clip54)"><path d="m123.31 20.664 2.77-.844"/></g><g fill="none" stroke="#0c0" stroke-linecap="round" stroke-linejoin="round" stroke-width="1.5" clip-path="url(#clip55)"><path d="m126.08 19.82 3.37-.956"/></g><g fill="none" stroke="#0c0" stroke-linecap="round" stroke-linejoin="round" stroke-width="1.5" clip-path="url(#clip56)"><path d="m129.45 18.864 2.94-.767"/></g><g fill="none" stroke="#0c0" stroke-linecap="round" stroke-linejoin="round" stroke-width="1.5" clip-path="url(#clip57)"><path d="m132.39 18.097 3.06-.737"/></g><g fill="none" stroke="#0c0" stroke-linecap="round" stroke-linejoin="round" stroke-width="1.5" clip-path="url(#clip58)"><path d="m135.45 17.36 3.46-.755"/></g><g fill="none" stroke="#0c0" stroke-linecap="round" stroke-linejoin="round" stroke-width="1.5" clip-path="url(#clip59)"><path d="m138.91 16.605 3.7-.716"/></g><g fill="none" stroke="#0c0" stroke-linecap="round" stroke-linejoin="round" stroke-width="1.5" clip-path="url(#clip60)"><path d="m142.61 15.889 2.34-.406"/></g><g fill="none" stroke="#0c0" stroke-linecap="round" stroke-linejoin="round" stroke-width="1.5" clip-path="url(#clip61)"><path d="m144.95 15.483 2.37-.374"/></g><g fill="none" stroke="#0c0" stroke-linecap="round" stroke-linejoin="round" stroke-width="1.5" clip-path="url(#clip62)"><path d="m147.32 15.109 2.45-.349"/></g><g fill="none" stroke="#0c0" stroke-linecap="round" stroke-linejoin="round" stroke-width="1.5" clip-path="url(#clip63)"><path d="m149.77 14.76 1.78-.229"/></g><g fill="none" stroke="#0c0" stroke-linecap="round" stroke-linejoin="round" stroke-width="1.5" clip-path="url(#clip64)"><path d="m151.55 14.531 2.01-.233"/></g><g fill="none" stroke="#0c0" stroke-linecap="round" stroke-linejoin="round" stroke-width="1.5" clip-path="url(#clip65)"><path d="m153.56 14.298 2.02-.208"/></g><g fill="none" stroke="#0c0" stroke-linecap="round" stroke-linejoin="round" stroke-width="1.5" clip-path="url(#clip66)"><path d="m155.58 14.09 1.93-.174"/></g><g fill="none" stroke="#0c0" stroke-linecap="round" stroke-linejoin="round" stroke-width="1.5" clip-path="url(#clip67)"><path d="m157.51 13.916 1.64-.13"/></g><g fill="none" stroke="#0c0" stroke-linecap="round" stroke-linejoin="round" stroke-width="1.5" clip-path="url(#clip68)"><path d="m159.15 13.786 1.94-.131"/></g><g fill="none" stroke="#0c0" stroke-linecap="round" stroke-linejoin="round" stroke-width="1.5" clip-path="url(#clip69)"><path d="m161.09 13.655 2.12-.115"/></g><g fill="none" stroke="#0c0" stroke-linecap="round" stroke-linejoin="round" stroke-width="1.5" clip-path="url(#clip70)"><path d="m163.21 13.54 3.26-.121"/></g><g fill="none" stroke="#0c0" stroke-linecap="round" stroke-linejoin="round" stroke-width="1.5" clip-path="url(#clip71)"><path d="m166.47 13.419 4.24-.058"/></g><g fill="none" stroke="#0c0" stroke-linecap="round" stroke-linejoin="round" stroke-width="1.5" clip-path="url(#clip72)"><path d="m170.71 13.361 3.03.03"/></g><g fill="none" stroke="#0c0" stroke-linecap="round" stroke-linejoin="round" stroke-width="1.5" clip-path="url(#clip73)"><path d="m173.74 13.391 3.63.111"/></g><g fill="none" stroke="#0c0" stroke-linecap="round" stroke-linejoin="round" stroke-width="1.5" clip-path="url(#clip74)"><path d="m177.37 13.502 3.16.166"/></g><g fill="none" stroke="#0c0" stroke-linecap="round" stroke-linejoin="round" stroke-width="1.5" clip-path="url(#clip75)"><path d="m180.53 13.668 3.39.249"/></g><g fill="none" stroke="#0c0" stroke-linecap="round" stroke-linejoin="round" stroke-width="1.5" clip-path="url(#clip76)"><path d="m183.92 13.917 3.08.289"/></g><g fill="none" stroke="#0c0" stroke-linecap="round" stroke-linejoin="round" stroke-width="1.5" clip-path="url(#clip77)"><path d="m187 14.206 3.24.371"/></g><g fill="none" stroke="#0c0" stroke-linecap="round" stroke-linejoin="round" stroke-width="1.5" clip-path="url(#clip78)"><path d="m190.24 14.577 3.66.501"/></g><g fill="none" stroke="#0c0" stroke-linecap="round" stroke-linejoin="round" stroke-width="1.5" clip-path="url(#clip79)"><path d="m193.9 15.078 3.52.565"/></g><g fill="none" stroke="#0c0" stroke-linecap="round" stroke-linejoin="round" stroke-width="1.5" clip-path="url(#clip80)"><path d="m197.42 15.643 3.1.566"/></g><g fill="none" stroke="#0c0" stroke-linecap="round" stroke-linejoin="round" stroke-width="1.5" clip-path="url(#clip81)"><path d="m200.52 16.209 3.27.666"/></g><g fill="none" stroke="#0c0" stroke-linecap="round" stroke-linejoin="round" stroke-width="1.5" clip-path="url(#clip82)"><path d="m203.79 16.875 3.16.713"/></g><g fill="none" stroke="#0c0" stroke-linecap="round" stroke-linejoin="round" stroke-width="1.5" clip-path="url(#clip83)"><path d="m206.95 17.588 2.95.727"/></g><g fill="none" stroke="#0c0" stroke-linecap="round" stroke-linejoin="round" stroke-width="1.5" clip-path="url(#clip84)"><path d="m209.9 18.315 4.21 1.147"/></g><g fill="none" stroke="#0c0" stroke-linecap="round" stroke-linejoin="round" stroke-width="1.5" clip-path="url(#clip85)"><path d="m214.11 19.462 4.26 1.285"/></g><g fill="none" stroke="#0c0" stroke-linecap="round" stroke-linejoin="round" stroke-width="1.5" clip-path="url(#clip86)"><path d="m218.37 20.747 2.97.978"/></g><g fill="none" stroke="#0c0" stroke-linecap="round" stroke-linejoin="round" stroke-width="1.5" clip-path="url(#clip87)"><path d="m221.34 21.725 3.43 1.208"/></g><g fill="none" stroke="#0c0" stroke-linecap="round" stroke-linejoin="round" stroke-width="1.5" clip-path="url(#clip88)"><path d="m224.77 22.933 3.09 1.166"/></g><g fill="none" stroke="#0c0" stroke-linecap="round" stroke-linejoin="round" stroke-width="1.5" clip-path="url(#clip89)"><path d="m227.86 24.099 2.48.993"/></g><g fill="none" stroke="#0c0" stroke-linecap="round" stroke-linejoin="round" stroke-width="1.5" clip-path="url(#clip90)"><path d="m230.34 25.092 2.86 1.204"/></g><g fill="none" stroke="#0c0" stroke-linecap="round" stroke-linejoin="round" stroke-width="1.5" clip-path="url(#clip91)"><path d="m233.2 26.296 2.97 1.322"/></g><g fill="none" stroke="#0c0" stroke-linecap="round" stroke-linejoin="round" stroke-width="1.5" clip-path="url(#clip92)"><path d="m236.17 27.618 2.38 1.113"/></g><g fill="none" stroke="#0c0" stroke-linecap="round" stroke-linejoin="round" stroke-width="1.5" clip-path="url(#clip93)"><path d="m238.55 28.731 2.6 1.275"/></g><g fill="none" stroke="#0c0" stroke-linecap="round" stroke-linejoin="round" stroke-width="1.5" clip-path="url(#clip94)"><path d="m241.15 30.006 2.65 1.359"/></g><g fill="none" stroke="#0c0" stroke-linecap="round" stroke-linejoin="round" stroke-width="1.5" clip-path="url(#clip95)"><path d="m243.8 31.365 2.77 1.49"/></g><g fill="none" stroke="#0c0" stroke-linecap="round" stroke-linejoin="round" stroke-width="1.5" clip-path="url(#clip96)"><path d="m246.57 32.855 2.08 1.162"/></g><g fill="none" stroke="#0c0" stroke-linecap="round" stroke-linejoin="round" stroke-width="1.5" clip-path="url(#clip97)"><path d="m248.65 34.017 1.23.71"/></g><g fill="none" stroke="#0c0" stroke-linecap="round" stroke-linejoin="round" stroke-width="1.5" clip-path="url(#clip98)"><path d="m249.88 34.727 1.24.734"/></g><g fill="none" stroke="#0c0" stroke-linecap="round" stroke-linejoin="round" stroke-width="1.5" clip-path="url(#clip99)"><path d="m251.12 35.461 1.72 1.037"/></g><g fill="none" stroke="#0c0" stroke-linecap="round" stroke-linejoin="round" stroke-width="1.5" clip-path="url(#clip100)"><path d="m252.84 36.498.46.332"/></g><g fill="none" stroke="#0c0" stroke-linecap="round" stroke-linejoin="round" stroke-width="1.5" clip-path="url(#clip101)"><path d="m253.3 36.83.22.174"/></g><g fill="none" stroke="#0c0" stroke-linecap="round" stroke-linejoin="round" stroke-width="1.5" clip-path="url(#clip102)"><path d="m253.52 37.004.2.182"/></g><g fill="none" stroke="#0c0" stroke-linecap="round" stroke-linejoin="round" stroke-width="1.5" clip-path="url(#clip103)"><path d="m253.72 37.186.15.135"/></g><g fill="none" stroke="#0c0" stroke-linecap="round" stroke-linejoin="round" stroke-width="1.5" clip-path="url(#clip104)"><path d="m253.87 37.321.14.151"/></g><g fill="none" stroke="#0c0" stroke-linecap="round" stroke-linejoin="round" stroke-width="1.5" clip-path="url(#clip105)"><path d="m254.01 37.472.16.174"/></g><g fill="none" stroke="#0c0" stroke-linecap="round" stroke-linejoin="round" stroke-width="1.5" clip-path="url(#clip106)"><path d="m254.17 37.646.13.165"/></g><g fill="none" stroke="#0c0" stroke-linecap="round" stroke-linejoin="round" stroke-width="1.5" clip-path="url(#clip107)"><path d="m254.3 37.811.12.173"/></g><g fill="none" stroke="#0c0" stroke-linecap="round" stroke-linejoin="round" stroke-width="1.5" clip-path="url(#clip108)"><path d="m254.42 37.984.07.12"/></g><g fill="none" stroke="#0c0" stroke-linecap="round" stroke-linejoin="round" stroke-width="1.5" clip-path="url(#clip109)"><path d="m254.49 38.104.1.197"/></g><g fill="none" stroke="#0c0" stroke-linecap="round" stroke-linejoin="round" stroke-width="1.5" clip-path="url(#clip110)"><path d="m254.59 38.301.08.19"/></g><g fill="none" stroke="#0c0" stroke-linecap="round" stroke-linejoin="round" stroke-width="1.5" clip-path="url(#clip111)"><path d="m254.67 38.491.05.163"/></g><g fill="none" stroke="#0c0" stroke-linecap="round" stroke-linejoin="round" stroke-width="1.5" clip-path="url(#clip112)"><path d="m254.72 38.654.05.18"/></g><g fill="none" stroke="#0c0" stroke-linecap="round" stroke-linejoin="round" stroke-width="1.5" clip-path="url(#clip113)"><path d="m254.77 38.834.02.214"/></g><g fill="none" stroke="#0c0" stroke-linecap="round" stroke-linejoin="round" stroke-width="1.5" clip-path="url(#clip114)"><path d="M254.79 39.048v.215"/></g><g fill="none" stroke="#0c0" stroke-linecap="round" stroke-linejoin="round" stroke-width="1.5" clip-path="url(#clip115)"><path d="m254.79 39.263-.04.334"/></g><g fill="none" stroke="#0c0" stroke-linecap="round" stroke-linejoin="round" stroke-width="1.5" clip-path="url(#clip116)"><path d="m254.75 39.597-.12.354"/></g><g fill="none" stroke="#0c0" stroke-linecap="round" stroke-linejoin="round" stroke-width="1.5" clip-path="url(#clip117)"><path d="m254.63 39.951-.1.208"/></g><g fill="none" stroke="#0c0" stroke-linecap="round" stroke-linejoin="round" stroke-width="1.5" clip-path="url(#clip118)"><path d="m254.53 40.159-.19.305"/></g><g fill="none" stroke="#0c0" stroke-linecap="round" stroke-linejoin="round" stroke-width="1.5" clip-path="url(#clip119)"><path d="m254.34 40.464-.2.258"/></g><g fill="none" stroke="#0c0" stroke-linecap="round" stroke-linejoin="round" stroke-width="1.5" clip-path="url(#clip120)"><path d="m254.14 40.722-.22.236"/></g><g fill="none" stroke="#0c0" stroke-linecap="round" stroke-linejoin="round" stroke-width="1.5" clip-path="url(#clip121)"><path d="m253.92 40.958-.3.287"/></g><g fill="none" stroke="#0c0" stroke-linecap="round" stroke-linejoin="round" stroke-width="1.5" clip-path="url(#clip122)"><path d="m253.62 41.245-.37.295"/></g><g fill="none" stroke="#0c0" stroke-linecap="round" stroke-linejoin="round" stroke-width="1.5" clip-path="url(#clip123)"><path d="m253.25 41.54-.35.254"/></g><g fill="none" stroke="#0c0" stroke-linecap="round" stroke-linejoin="round" stroke-width="1.5" clip-path="url(#clip124)"><path d="m252.9 41.794-.52.336"/></g><g fill="none" stroke="#0c0" stroke-linecap="round" stroke-linejoin="round" stroke-width="1.5" clip-path="url(#clip125)"><path d="m252.38 42.13-.61.344"/></g><g fill="none" stroke="#0c0" stroke-linecap="round" stroke-linejoin="round" stroke-width="1.5" clip-path="url(#clip126)"><path d="m251.77 42.474-.59.301"/></g><g fill="none" stroke="#0c0" stroke-linecap="round" stroke-linejoin="round" stroke-width="1.5" clip-path="url(#clip127)"><path d="m251.18 42.775-.74.347"/></g><g fill="none" stroke="#0c0" stroke-linecap="round" stroke-linejoin="round" stroke-width="1.5" clip-path="url(#clip128)"><path d="m250.44 43.122-.63.269"/></g><g fill="none" stroke="#0c0" stroke-linecap="round" stroke-linejoin="round" stroke-width="1.5" clip-path="url(#clip129)"><path d="m249.81 43.391-1 .388"/></g><g fill="none" stroke="#0c0" stroke-linecap="round" stroke-linejoin="round" stroke-width="1.5" clip-path="url(#clip130)"><path d="m248.81 43.779-.77.276"/></g><g fill="none" stroke="#0c0" stroke-linecap="round" stroke-linejoin="round" stroke-width="1.5" clip-path="url(#clip131)"><path d="m248.04 44.055-.72.242"/></g><g fill="none" stroke="#0c0" stroke-linecap="round" stroke-linejoin="round" stroke-width="1.5" clip-path="url(#clip132)"><path d="m247.32 44.297-.78.248"/></g><g fill="none" stroke="#0c0" stroke-linecap="round" stroke-linejoin="round" stroke-width="1.5" clip-path="url(#clip133)"><path d="m246.54 44.545-.76.229"/></g><g fill="none" stroke="#0c0" stroke-linecap="round" stroke-linejoin="round" stroke-width="1.5" clip-path="url(#clip134)"><path d="m245.78 44.774-.85.243"/></g><g fill="none" stroke="#0c0" stroke-linecap="round" stroke-linejoin="round" stroke-width="1.5" clip-path="url(#clip135)"><path d="m244.93 45.017-.93.249"/></g><g fill="none" stroke="#0c0" stroke-linecap="round" stroke-linejoin="round" stroke-width="1.5" clip-path="url(#clip136)"><path d="m244 45.266-1.21.308"/></g><g fill="none" stroke="#0c0" stroke-linecap="round" stroke-linejoin="round" stroke-width="1.5" clip-path="url(#clip137)"><path d="m242.79 45.574-1.32.316"/></g><g fill="none" stroke="#0c0" stroke-linecap="round" stroke-linejoin="round" stroke-width="1.5" clip-path="url(#clip138)"><path d="m241.47 45.89-2.13.466"/></g><g fill="none" stroke="#0c0" stroke-linecap="round" stroke-linejoin="round" stroke-width="1.5" clip-path="url(#clip139)"><path d="m239.34 46.356-2.03.407"/></g><g fill="none" stroke="#0c0" stroke-linecap="round" stroke-linejoin="round" stroke-width="1.5" clip-path="url(#clip140)"><path d="m237.31 46.763-1.69.313"/></g><g fill="none" stroke="#0c0" stroke-linecap="round" stroke-linejoin="round" stroke-width="1.5" clip-path="url(#clip141)"><path d="m235.62 47.076-2.07.357"/></g><g fill="none" stroke="#0c0" stroke-linecap="round" stroke-linejoin="round" stroke-width="1.5" clip-path="url(#clip142)"><path d="m233.55 47.433-2.14.344"/></g><g fill="none" stroke="#0c0" stroke-linecap="round" stroke-linejoin="round" stroke-width="1.5" clip-path="url(#clip143)"><path d="m231.41 47.777-2.22.33"/></g><g fill="none" stroke="#0c0" stroke-linecap="round" stroke-linejoin="round" stroke-width="1.5" clip-path="url(#clip144)"><path d="m229.19 48.107-2.53.346"/></g><g fill="none" stroke="#0c0" stroke-linecap="round" stroke-linejoin="round" stroke-width="1.5" clip-path="url(#clip145)"><path d="m226.66 48.453-2.46.313"/></g><g fill="none" stroke="#0c0" stroke-linecap="round" stroke-linejoin="round" stroke-width="1.5" clip-path="url(#clip146)"><path d="m224.2 48.766-2.85.332"/></g><g fill="none" stroke="#0c0" stroke-linecap="round" stroke-linejoin="round" stroke-width="1.5" clip-path="url(#clip147)"><path d="m221.35 49.098-2.64.282"/></g><g fill="none" stroke="#0c0" stroke-linecap="round" stroke-linejoin="round" stroke-width="1.5" clip-path="url(#clip148)"><path d="m218.71 49.38-3.14.307"/></g><g fill="none" stroke="#0c0" stroke-linecap="round" stroke-linejoin="round" stroke-width="1.5" clip-path="url(#clip149)"><path d="m215.57 49.687-3.16.28"/></g><g fill="none" stroke="#0c0" stroke-linecap="round" stroke-linejoin="round" stroke-width="1.5" clip-path="url(#clip150)"><path d="m212.41 49.967-3.55.283"/></g><g fill="none" stroke="#0c0" stroke-linecap="round" stroke-linejoin="round" stroke-width="1.5" clip-path="url(#clip151)"><path d="m208.86 50.25-3.32.237"/></g><g fill="none" stroke="#0c0" stroke-linecap="round" stroke-linejoin="round" stroke-width="1.5" clip-path="url(#clip152)"><path d="m205.54 50.487-3 .19"/></g><g fill="none" stroke="#0c0" stroke-linecap="round" stroke-linejoin="round" stroke-width="1.5" clip-path="url(#clip153)"><path d="m202.54 50.677-2.98.171"/></g><g fill="none" stroke="#0c0" stroke-linecap="round" stroke-linejoin="round" stroke-width="1.5" clip-path="url(#clip154)"><path d="m199.56 50.848-3.32.167"/></g><g fill="none" stroke="#0c0" stroke-linecap="round" stroke-linejoin="round" stroke-width="1.5" clip-path="url(#clip155)"><path d="m196.24 51.015-3.47.15"/></g><g fill="none" stroke="#0c0" stroke-linecap="round" stroke-linejoin="round" stroke-width="1.5" clip-path="url(#clip156)"><path d="m192.77 51.165-3.06.114"/></g><g fill="none" stroke="#0c0" stroke-linecap="round" stroke-linejoin="round" stroke-width="1.5" clip-path="url(#clip157)"><path d="m189.71 51.279-3.07.096"/></g><g fill="none" stroke="#0c0" stroke-linecap="round" stroke-linejoin="round" stroke-width="1.5" clip-path="url(#clip158)"><path d="m186.64 51.375-3.32.084"/></g><g fill="none" stroke="#0c0" stroke-linecap="round" stroke-linejoin="round" stroke-width="1.5" clip-path="url(#clip159)"><path d="m183.32 51.459-3.65.069"/></g><g fill="none" stroke="#0c0" stroke-linecap="round" stroke-linejoin="round" stroke-width="1.5" clip-path="url(#clip160)"><path d="m179.67 51.528-3.73.046"/></g><g fill="none" stroke="#0c0" stroke-linecap="round" stroke-linejoin="round" stroke-width="1.5" clip-path="url(#clip161)"><path d="m175.94 51.574-5.23.023"/></g><g fill="none" stroke="#0c0" stroke-linecap="round" stroke-linejoin="round" stroke-width="1.5" clip-path="url(#clip162)"><path d="m170.71 51.597-3.1-.01"/></g><g fill="none" stroke="#0c0" stroke-linecap="round" stroke-linejoin="round" stroke-width="1.5" clip-path="url(#clip163)"><path d="m167.61 51.587-5.04-.051"/></g><g fill="none" stroke="#0c0" stroke-linecap="round" stroke-linejoin="round" stroke-width="1.5" clip-path="url(#clip164)"><path d="m162.57 51.536-3.92-.071"/></g><g fill="none" stroke="#0c0" stroke-linecap="round" stroke-linejoin="round" stroke-width="1.5" clip-path="url(#clip165)"><path d="m158.65 51.465-3.61-.09"/></g><g fill="none" stroke="#0c0" stroke-linecap="round" stroke-linejoin="round" stroke-width="1.5" clip-path="url(#clip166)"><path d="m155.04 51.375-4.37-.141"/></g><g fill="none" stroke="#0c0" stroke-linecap="round" stroke-linejoin="round" stroke-width="1.5" clip-path="url(#clip167)"><path d="m150.67 51.234-3.69-.149"/></g><g fill="none" stroke="#0c0" stroke-linecap="round" stroke-linejoin="round" stroke-width="1.5" clip-path="url(#clip168)"><path d="m146.98 51.085-3.32-.156"/></g><g fill="none" stroke="#0c0" stroke-linecap="round" stroke-linejoin="round" stroke-width="1.5" clip-path="url(#clip169)"><path d="m143.66 50.929-3.38-.183"/></g><g fill="none" stroke="#0c0" stroke-linecap="round" stroke-linejoin="round" stroke-width="1.5" clip-path="url(#clip170)"><path d="m140.28 50.746-3.39-.208"/></g><g fill="none" stroke="#0c0" stroke-linecap="round" stroke-linejoin="round" stroke-width="1.5" clip-path="url(#clip171)"><path d="m136.89 50.538-3.61-.251"/></g><g fill="none" stroke="#0c0" stroke-linecap="round" stroke-linejoin="round" stroke-width="1.5" clip-path="url(#clip172)"><path d="m133.28 50.287-3.76-.295"/></g><g fill="none" stroke="#0c0" stroke-linecap="round" stroke-linejoin="round" stroke-width="1.5" clip-path="url(#clip173)"><path d="m129.52 49.992-6.17-.568"/></g><g fill="none" stroke="#0c0" stroke-linecap="round" stroke-linejoin="round" stroke-width="1.5" clip-path="url(#clip174)"><path d="m123.35 49.424-6.72-.755"/></g><g fill="none" stroke="#0c0" stroke-linecap="round" stroke-linejoin="round" stroke-width="1.5" clip-path="url(#clip175)"><path d="m116.63 48.669-4.63-.621"/></g><g fill="none" stroke="#0c0" stroke-linecap="round" stroke-linejoin="round" stroke-width="1.5" clip-path="url(#clip176)"><path d="m112 48.048-3.25-.496"/></g><g fill="none" stroke="#0c0" stroke-linecap="round" stroke-linejoin="round" stroke-width="1.5" clip-path="url(#clip177)"><path d="m108.75 47.552-3.19-.546"/></g><g fill="none" stroke="#0c0" stroke-linecap="round" stroke-linejoin="round" stroke-width="1.5" clip-path="url(#clip178)"><path d="m105.56 47.006-2.89-.556"/></g><g fill="none" stroke="#0c0" stroke-linecap="round" stroke-linejoin="round" stroke-width="1.5" clip-path="url(#clip179)"><path d="m102.67 46.45-2.675-.579"/></g><g fill="none" stroke="#0c0" stroke-linecap="round" stroke-linejoin="round" stroke-width="1.5" clip-path="url(#clip180)"><path d="m99.995 45.871-2.936-.729"/></g><g fill="none" stroke="#0c0" stroke-linecap="round" stroke-linejoin="round" stroke-width="1.5" clip-path="url(#clip181)"><path d="m97.059 45.142-2.694-.788"/></g><g fill="none" stroke="#0c0" stroke-linecap="round" stroke-linejoin="round" stroke-width="1.5" clip-path="url(#clip182)"><path d="m94.365 44.354-1.288-.434"/></g><g fill="none" stroke="#0c0" stroke-linecap="round" stroke-linejoin="round" stroke-width="1.5" clip-path="url(#clip183)"><path d="m93.077 43.92-1.37-.519"/></g><g fill="none" stroke="#0c0" stroke-linecap="round" stroke-linejoin="round" stroke-width="1.5" clip-path="url(#clip184)"><path d="m91.707 43.401-1.239-.54"/></g><g fill="none" stroke="#0c0" stroke-linecap="round" stroke-linejoin="round" stroke-width="1.5" clip-path="url(#clip185)"><path d="m90.468 42.861-.81-.406"/></g><g fill="none" stroke="#0c0" stroke-linecap="round" stroke-linejoin="round" stroke-width="1.5" clip-path="url(#clip186)"><path d="m89.658 42.455-.71-.405"/></g><g fill="none" stroke="#0c0" stroke-linecap="round" stroke-linejoin="round" stroke-width="1.5" clip-path="url(#clip187)"><path d="m88.948 42.05-.63-.417"/></g><g fill="none" stroke="#0c0" stroke-linecap="round" stroke-linejoin="round" stroke-width="1.5" clip-path="url(#clip188)"><path d="m88.318 41.633-.541-.427"/></g><g fill="none" stroke="#0c0" stroke-linecap="round" stroke-linejoin="round" stroke-width="1.5" clip-path="url(#clip189)"><path d="m87.777 41.206-.271-.253"/></g><g fill="none" stroke="#0c0" stroke-linecap="round" stroke-linejoin="round" stroke-width="1.5" clip-path="url(#clip190)"><path d="m87.506 40.953-.423-.489"/></g><g fill="none" stroke="#0c0" stroke-linecap="round" stroke-linejoin="round" stroke-width="1.5" clip-path="url(#clip191)"><path d="m87.083 40.464-.197-.304"/></g><g fill="none" stroke="#0c0" stroke-linecap="round" stroke-linejoin="round" stroke-width="1.5" clip-path="url(#clip192)"><path d="m86.886 40.16-.137-.283"/></g><g fill="none" stroke="#0c0" stroke-linecap="round" stroke-linejoin="round" stroke-width="1.5" clip-path="url(#clip193)"><path d="m86.749 39.877-.101-.311"/></g><g fill="none" stroke="#0c0" stroke-linecap="round" stroke-linejoin="round" stroke-width="1.5" clip-path="url(#clip194)"><path d="m86.648 39.566-.051-.349"/></g><g fill="none" stroke="#0c0" stroke-linecap="round" stroke-linejoin="round" stroke-width="1.5" clip-path="url(#clip195)"><path d="m86.597 39.217.032-.444"/></g><g fill="none" stroke="#0c0" stroke-linecap="round" stroke-linejoin="round" stroke-width=".5" clip-path="url(#clip196)"><path d="M87.083 40.464 170.71 168.79"/></g><g fill="none" stroke="#0c0" stroke-linecap="round" stroke-linejoin="round" stroke-width=".5" clip-path="url(#clip197)"><path d="M254.34 40.464 170.71 168.79"/></g><g clip-path="url(#clip198)" transform="matrix(.21 0 0 .21 222 113.52)"><path d="M35.406-62.297v57.594h14V0Q45-.297 29.5-.297T9.594 0v-4.703H23.5v-51.703q-6.203 2-13 2h-2v-4.688h2q12.406 0 20.094-5.703.906-.703 2.203-.703 1.797 0 2.203.656.406.641.406 2.547z"/></g><g clip-path="url(#clip199)" transform="matrix(.21 0 0 .21 239.91 113.52)"><path d="m43.094-11 4.5-18q1.109-4.094 1.109-6.703 0-5.891-5-5.891-5.297 0-10.297 3.891-2.203 1.797-4.156 4.453-1.953 2.656-2.047 3.344-.109.203-1.515 5.812Q24.297-18.5 24.094-18q-1.391 6-2.797 11.203-.391 1.5-.75 2.5-.344 1-1.094 2.36-.75 1.343-2.109 2.03Q16 .798 14.203.798 12 .797 10.75-.547 9.5-1.907 9.5-3.594q0-.312.797-4l3.609-14q.5-2.203 2.188-9 1.406-5.609 1.406-7.312 0-3.688-2.297-3.688-4.203 0-6.797 10-.703 2.797-.812 2.891-.5.5-2 .5-2.39 0-2.39-1.391 0-.812 1.093-4.062Q5.407-36.906 7-39.5q3.5-5.703 8.703-5.703 4.297 0 7.797 2t4.5 5.609q7.094-7.609 16.5-7.609 6.094 0 9.703 2.109Q58-41 59-36.594q7.5-8.609 17.406-8.609 6.391 0 10.641 2.656 4.25 2.641 4.25 8.953 0 5.5-6.203 21.391-2 5-2 7.297 0 1 .297 1.5.312.5.609.562.297.047.797.047.906 0 1.906-.39 1-.407 2.547-1.454 1.547-1.062 3.094-3.703 1.562-2.656 2.75-6.562.406-1.297 2.312-1.297 2.391 0 2.391 1.406 0 1-1 3.359-1 2.344-2.797 5.188-1.797 2.844-4.953 4.953Q87.906.797 84.203.797q-4.5 0-7.906-2.438-3.391-2.453-3.391-6.562 0-1.703 1.391-5.094 6.297-16.609 6.297-22.406 0-5.891-5-5.891-8 0-14.297 8.188-2.203 3-2.594 4.812Q52.906-4.797 52.406-3.5 50.5.797 46.094.797q-2.188 0-3.438-1.344-1.25-1.36-1.25-3.047 0-.312 1.688-7.406z"/></g><g clip-path="url(#clip200)" transform="matrix(.21 0 0 .21 144 44.138)"><path d="M35.406-62.297v57.594h14V0Q45-.297 29.5-.297T9.594 0v-4.703H23.5v-51.703q-6.203 2-13 2h-2v-4.688h2q12.406 0 20.094-5.703.906-.703 2.203-.703 1.797 0 2.203.656.406.641.406 2.547z"/></g><g clip-path="url(#clip201)" transform="matrix(.21 0 0 .21 161.91 44.138)"><path d="m43.094-11 4.5-18q1.109-4.094 1.109-6.703 0-5.891-5-5.891-5.297 0-10.297 3.891-2.203 1.797-4.156 4.453-1.953 2.656-2.047 3.344-.109.203-1.515 5.812Q24.297-18.5 24.094-18q-1.391 6-2.797 11.203-.391 1.5-.75 2.5-.344 1-1.094 2.36-.75 1.343-2.109 2.03Q16 .798 14.203.798 12 .797 10.75-.547 9.5-1.907 9.5-3.594q0-.312.797-4l3.609-14q.5-2.203 2.188-9 1.406-5.609 1.406-7.312 0-3.688-2.297-3.688-4.203 0-6.797 10-.703 2.797-.812 2.891-.5.5-2 .5-2.39 0-2.39-1.391 0-.812 1.093-4.062Q5.407-36.906 7-39.5q3.5-5.703 8.703-5.703 4.297 0 7.797 2t4.5 5.609q7.094-7.609 16.5-7.609 6.094 0 9.703 2.109Q58-41 59-36.594q7.5-8.609 17.406-8.609 6.391 0 10.641 2.656 4.25 2.641 4.25 8.953 0 5.5-6.203 21.391-2 5-2 7.297 0 1 .297 1.5.312.5.609.562.297.047.797.047.906 0 1.906-.39 1-.407 2.547-1.454 1.547-1.062 3.094-3.703 1.562-2.656 2.75-6.562.406-1.297 2.312-1.297 2.391 0 2.391 1.406 0 1-1 3.359-1 2.344-2.797 5.188-1.797 2.844-4.953 4.953Q87.906.797 84.203.797q-4.5 0-7.906-2.438-3.391-2.453-3.391-6.562 0-1.703 1.391-5.094 6.297-16.609 6.297-22.406 0-5.891-5-5.891-8 0-14.297 8.188-2.203 3-2.594 4.812Q52.906-4.797 52.406-3.5 50.5.797 46.094.797q-2.188 0-3.438-1.344-1.25-1.36-1.25-3.047 0-.312 1.688-7.406z"/></g><g clip-path="url(#clip202)" transform="matrix(.147 0 0 .147 183.58 35.467)"><path d="M51.703-22.203 48.594 0H5.704v-1.797q0-1.61.187-2.047.203-.453 1.109-1.36l20.094-20.499q10.812-11 10.812-20.797 0-6-3.5-10.141-3.5-4.156-9.703-4.156-6.109 0-10.297 3.5 1.094.297 2.188.844 1.109.547 2.297 2.25 1.203 1.703 1.203 4.109 0 3.5-2.25 5.344-2.25 1.844-4.938 1.844-2.5 0-4.86-1.75-2.343-1.75-2.343-5.641 0-6.703 6.141-10.953Q18-65.5 27.203-65.5q10.703 0 17.594 5.203 6.906 5.203 6.906 13.703 0 3.5-1 6.203-1 2.688-3.812 5.641-2.797 2.953-5.203 4.859Q39.297-28 33.906-24 29.203-20.594 19.5-12.5h14.703q9.094 0 10.203-.594 1.297-.703 2.594-9.109h4.703z"/></g><g clip-path="url(#clip203)" transform="matrix(.23 0 0 .23 123 84)"><g fill="#0c0"><path d="M60-10h7.203q2.797 0 4.25-.203 1.453-.203 1.844-.453.406-.25.797-.844 1-1.406 3.406-6.5.5-1 .953-1.344.453-.359 1.547-.359 2.406 0 2.406 1.797 0 .406-1.609 3.609-4.703 10-6 12.703-.594 1.188-1.094 1.39-.5.204-2.406.204h-15.5Q54.594 0 54-.047q-.594-.047-1.094-.5-.5-.453-.5-1.36Q52.406-4.5 56.5-13q2.797-5.406 7.203-12.594 3.203-5.406 4.953-8.703 1.75-3.297 3.75-8.953 2-5.656 2-10.25 0-3.906-1.453-6.656-1.453-2.75-3.906-4.094-2.453-1.344-5-1.891-2.547-.562-5.453-.562-12.188 0-19.75 8.5-7.547 8.5-7.547 23.297 0 1.906.25 4.953.25 3.047.453 5.359l.203 2.297q.594 5 .594 9.703 0 4.297-.594 7.89-.609 3.407-1.156 4.063Q30.5 0 28.203 0h-15.5q-2.5 0-2.953-.594-.453-.61-.453-3.61l.11-5.89q0-5 .093-6.203.094-1.5.188-2.047.109-.562.609-.953.5-.406 1.609-.406 1.297 0 1.844.562.547.547.547 1.938 0 .406-.047 1.015-.047.594-.047.985 0 4.5.594 4.797Q15.797-10 20-10h8.297q-.797-4.797-5.5-13.406-5.594-10.5-5.594-17.188 0-5.406 2.641-10.547 2.656-5.156 7.609-9.5 4.953-4.359 13.047-7 8.094-2.656 18.094-2.656 15.406 0 22.703 5.703 7.297 5.688 7.297 14.297 0 4.094-1.406 7.953-1.391 3.844-4.75 8-3.344 4.141-5.844 6.75-2.5 2.594-7.688 7.5Q62.797-14 60-10z"/></g></g><g clip-path="url(#clip204)" transform="matrix(.23 0 0 .23 152.39 84)"><g fill="#0c0"><path d="M78.797-33.203H10.5q-4.094 0-4.094-3 0-3.094 4.594-3.094h67.297q4.609 0 4.609 3.094 0 3-4.109 3zm-.5 22.406H11q-4.594 0-4.594-3.109 0-3 4.094-3h68.297q4.109 0 4.109 3 0 3.109-4.609 3.109z"/></g></g><g clip-path="url(#clip205)" transform="matrix(.23 0 0 .23 179.34 84)"><g fill="#0c0"><path d="M35.406-62.297v57.594h14V0Q45-.297 29.5-.297T9.594 0v-4.703H23.5v-51.703q-6.203 2-13 2h-2v-4.688h2q12.406 0 20.094-5.703.906-.703 2.203-.703 1.797 0 2.203.656.406.641.406 2.547z"/></g></g><g clip-path="url(#clip206)" transform="matrix(.23 0 0 .23 198.95 84)"><g fill="#0c0"><path d="M41.406-39.406q-3-2.188-8.312-2.188-3.891 0-6.453 1.094-2.547 1.094-3.391 2.75-.844 1.656-1.094 2.453-.25.797-.25 1.391 0 1.812 1.391 2.859 1.406 1.047 2.953 1.5 1.547.453 5.047 1.047 7.203 1.203 10.406 4 4 3.5 4 8.094 0 .5-.156 1.359-.141.844-.703 3.094-.547 2.25-2.047 4.25T39-3.641q-2.297 2.047-6.5 3.25Q28.297.797 22.906.797 15 .797 10.344-1.75q-4.64-2.547-4.64-7.344 0-3.5 2.187-5.656 2.203-2.156 5.015-2.156 1.891 0 3.391 1.109 1.5 1.094 1.5 3.5 0 2.297-1.5 4.25-1.5 1.953-4 2.64 3.609 2.61 10.797 2.61 5.109 0 8.5-1.344Q35-5.5 36.203-7.5q1.203-2 1.5-3.047.297-1.047.297-1.75 0-4.609-9-6.109-5.594-1.094-7.453-1.641-1.844-.547-3.844-2.156-3.609-2.891-3.609-7.594 0-2.406 1.547-5.906 1.562-3.5 4.562-5.797 4.891-3.703 13.094-3.703 6.703 0 10.5 2.406 3.797 2.391 3.797 6.391 0 3.312-1.953 5.062-1.938 1.75-4.141 1.75-1.703 0-3-1.094-1.297-1.109-1.297-3.015 0-1.391 1-3.094 1-1.703 3.203-2.609z"/></g></g><g clip-path="url(#clip207)" transform="matrix(.23 0 0 .23 211.17 84)"><g fill="#0c0"><path d="M44.406-40.203Q43-41.594 40.5-41.594q-6.406 0-11 5.797-1.203 1.391-1.703 3.203-.094.391-3.5 14.094-3.391 13.703-3.5 14-.703 2.797-2.703 4.047-2 1.25-3.891 1.25Q12 .797 10.75-.547 9.5-1.907 9.5-3.594l1.797-7.812q1.109-4.094 2-8.188.297-1.203 1.391-5.547 1.109-4.359 1.406-5.265 1.406-6 1.406-7.594 0-3.594-2.297-3.594-4.297 0-6.797 10-.703 2.797-.812 2.891-.5.5-2 .5-2.39 0-2.39-1.391 0-.812 1.093-4.109Q5.407-37 7-39.5q3.5-5.703 8.703-5.703 3.297 0 6.688 1.453 3.406 1.453 5.015 4.547 5.594-6 13.297-6 4.5 0 7.141 2.562Q50.5-40.094 50.5-36.5t-2.203 5.75q-2.203 2.156-5 2.156-2.297 0-3.656-1.406-1.344-1.406-1.344-3.203 0-.891.297-2.047.312-1.156 1.812-2.797 1.5-1.656 4-2.156z"/></g></g></g></svg>