<?xml version="1.0" encoding="utf-8" ?>
<svg xmlns="http://www.w3.org/2000/svg" xmlns:ev="http://www.w3.org/2001/xml-events" xmlns:xlink="http://www.w3.org/1999/xlink" baseProfile="full" height="261" version="1.1" width="261">
  <defs>
    <marker id="id1" markerHeight="20" markerWidth="30" orient="auto" refX="25" refY="10">
      <path d="M 15,7 L 25,10 L 15,13" fill="none" stroke="black" stroke-miterlimit="10"/>
    </marker>
    <marker id="id2" markerHeight="20" markerWidth="30" orient="auto" refX="25" refY="10">
      <path d="M 5,6 L 25,10 L 5,14" fill="none" stroke="black" stroke-miterlimit="10"/>
    </marker>
    <marker id="id3" markerHeight="20" markerWidth="30" orient="auto" refX="25" refY="10">
      <path d="M 15,7 L 25,10 L 15,13" fill="none" stroke="#d100d1" stroke-miterlimit="10"/>
    </marker>
    <symbol overflow="visible" id="phi" style="overflow:visible">
      <path style="stroke:none"
         d="m 3.59375,-0.828125 c -0.203125,0 -0.21875,0.15625 -0.21875,0.09375 C 3.375,-0.75 3.578125,-1.875 3.640625,-2.140625 4.03125,-3.671875 4.78125,-4.625 5.828125,-4.625 c 0.765625,0 0.96875,0.4375 0.96875,1.09375 0,1.375 -1.375,2.703125 -3.203125,2.703125 z M 3.078125,0.09375 C 3.15625,0.109375 3.28125,0.125 3.484375,0.125 5.453125,0.125 7.40625,-1.90625 7.40625,-3.796875 7.40625,-4.53125 6.9375,-5.5625 5.921875,-5.5625 4.203125,-5.5625 3.3125,-3 2.6875,-0.90625 c -1.25,-0.25 -1.671875,-0.828125 -1.671875,-1.625 0,-0.328125 0.203125,-1.5 0.890625,-2.359375 0.140625,-0.15625 0.1875,-0.28125 0.1875,-0.3125 0,-0.09375 -0.25,-0.25 -0.28125,-0.25 -0.3125,0 -1.390625,1.90625 -1.390625,3.03125 0,1.34375 1.21875,2.21875 1.984375,2.390625 L 1.8125,1.875 C 1.75,2.0625 1.75,2.09375 1.75,2.140625 c 0,0.28125 0.46875,0.4375 0.484375,0.4375 0.125,0 0.484375,-0.1875 0.59375,-0.421875 C 2.859375,2.046875 3.1875,0.1875 3.203125,0.125 z" />
    </symbol>
    <symbol overflow="visible" id="theta" style="overflow:visible">
      <path style="stroke:none"
         d="m 5.453125,-6.15625 c 0,-1.21875 -0.546875,-2.5625 -1.515625,-2.5625 -1.671875,0 -3.625,3.65625 -3.625,6.296875 0,0.546875 0.28125,2.546875 1.546875,2.546875 1.625,0 3.59375,-3.5625 3.59375,-6.28125 z m -3.625,1.6875 c 0.1875,-0.703125 0.390625,-1.609375 0.859375,-2.453125 0.390625,-0.71875 0.703125,-1.25 1.234375,-1.25 0.390625,0 0.484375,0.1875 0.484375,1.328125 0,0.4375 -0.03125,1.015625 -0.34375,2.21875 l -2.203125,0 z M 3.9375,-4.125 c -0.296875,1.171875 -0.5,1.828125 -0.921875,2.578125 -0.34375,0.609375 -0.65625,1.125 -1.15625,1.125 -0.359375,0 -0.515625,-0.125 -0.515625,-1.3125 0,-0.78125 0.203125,-1.59375 0.359375,-2.234375 l 2.1875,0 z" />
  </symbol>
  </defs>
  <g fill="none" id="image" stroke="#000000" stroke-width="1" transform="translate(116,145) scale(1.0,-1.0)">
    <path d="M 0,108.000000 A 108.000000,108.000000 0 1 0 0,-108.000000 A 108.000000,108.000000 0 1 0 0,108.000000 Z M 97.881241,-19.289469 A 108.000000,88.710531 132.186261 0 1 0.000000,97.881241 A 108.000000,41.366400 -101.148429 0 1 -45.642772,-41.366400 A 108.000000,45.642772 -0.000000 0 1 97.881241,-19.289469 Z" fill="#ffe1e1" stroke="none"/>
    <path d=" M 97.881241,-19.289469 A 108.000000,88.710531 132.186261 0 1 0.000000,97.881241 A 108.000000,41.366400 -101.148429 0 1 -45.642772,-41.366400 A 108.000000,45.642772 -0.000000 0 1 97.881241,-19.289469 Z Z" fill="#ffffff" stroke="none"/>
    <circle cx="0" cy="0" r="108" stroke="red" stroke-width="1.442"/>
    <path d="M -108.000000,0 A 108.000000,88.710531 0 1 1 108.000000,0" stroke="#0000ff" stroke-width="0.721" transform="translate(0.000000, 0.000000) rotate(132.186261)"/>
    <path d="M -108.000000,0 A 108.000000,41.366400 0 1 1 108.000000,0" stroke="#0000ff" stroke-width="0.721" transform="translate(0.000000, 0.000000) rotate(-101.148429)"/>
    <path d="M -108.000000,0 A 108.000000,45.642772 0 1 1 108.000000,0" stroke="#00ae00" stroke-width="0.721" transform="translate(0.000000, 0.000000) rotate(-0.000000)"/>
    <line marker-end="url(#id1)" stroke="black" stroke-dasharray="4.326,2.163,0.721,2.163" stroke-width="0.721" x1="0.0" x2="-63.89988117519373" y1="0.0" y2="-57.91295989979474"/>
    <line marker-end="url(#id1)" stroke="black" stroke-dasharray="4.326,2.163,0.721,2.163" stroke-width="0.721" x1="0.0" x2="137.0337373999415" y1="0.0" y2="-27.005256707697615"/>
    <line marker-end="url(#id1)" stroke="black" stroke-dasharray="4.326,2.163,0.721,2.163" stroke-width="0.721" x1="0.0" x2="0.0" y1="0.0" y2="137.03373739994146"/>
    <line stroke="#d100d1" stroke-dasharray="5" stroke-width="0.3605" x1="0.0" x2="39.81828526141813" y1="0.0" y2="-24.03278111758336"/>
    <line stroke="#d100d1" stroke-dasharray="5" stroke-width="0.3605" x1="39.81828526141813" x2="39.81828526141813" y1="-24.03278111758336" y2="50.94859963602409"/>
    <line marker-end="url(#id3)" stroke="#d100d1" stroke-width="1" x1="0.0" x2="39.81828526141813" y1="0.0" y2="50.94859963602409"/>
    <path d="M -15.974970,-14.478240 A 37.800000,15.974970 -0.000000 0 1 21.681189,-13.085930" marker-end="url(#id2)" stroke="black" stroke-width="0.3605"/>
    <path d="M -0.000000,39.152496 A 43.200000,22.456949 -73.515435 0 0 15.927314,20.379440" marker-end="url(#id2)" stroke="black" stroke-width="0.3605"/>
    <path d="M 39.818285,-4.456533 A 21.600000,11.228475 106.484565 0 1 27.429034,-16.555107" stroke="#d100d1" stroke-width="0.3605"/>
    <circle cx="0" cy="0" fill="#d100d1" r="2" stroke="none" transform="translate(34.862585, -13.211212) rotate(-73.515435) scale(1, 0.519837)"/>
    <circle cx="0.0" cy="0.0" fill="black" r="2" stroke="none"/>
    <circle cx="-45.642772267995525" cy="-41.36639992842482" fill="black" r="2" stroke="none"/>
    <circle cx="97.88124099995821" cy="-19.28946907692687" fill="black" r="2" stroke="none"/>
    <circle cx="0.0" cy="97.8812409999582" fill="black" r="2" stroke="none"/>
    <circle cx="39.81828526141813" cy="50.94859963602409" fill="#d100d1" r="2" stroke="none"/>
    <text fill="black" font-family="cmmi10" stroke="none" transform="translate(39.818285,60.736724) scale(1.300000) scale(1,-1) translate(-5, 4)">P</text>
    <text fill="black" font-family="cmmi10" stroke="none" transform="translate(-11.745749,2.314736) scale(1.300000) scale(1,-1) translate(-5, 4)">O</text>
    <text fill="black" font-family="cmmi10" stroke="none" transform="translate(-71.730380,-56.369802) scale(1.300000) scale(1,-1) translate(-5, 4)">x</text>
    <text fill="black" font-family="cmmi10" stroke="none" transform="translate(127.905183,-35.278537) scale(1.300000) scale(1,-1) translate(-5, 4)">y</text>
    <text fill="black" font-family="cmmi10" stroke="none" transform="translate(15.660999,133.947422) scale(1.300000) scale(1,-1) translate(-5, 4)">z</text>
    <text fill="black" font-family="cmmi10" stroke="none" transform="translate(27.872800,20.667744) scale(1.300000) scale(1,-1) translate(-5, 4)">r</text>
    <use xlink:href="#phi" x="0" y="0" transform="translate(6.588974,-26.934299) scale(1.300000) scale(1,-1) translate(-5, 4)" style="fill:#211e1e;fill-opacity:1" />
    <use xlink:href="#theta" x="0" y="0" transform="translate(12.712120,47.514422) scale(1.300000) scale(1,-1) translate(-5, 4)" style="fill:#211e1e;fill-opacity:1" />
  </g>
</svg>
